<svg xmlns="http://www.w3.org/2000/svg" viewBox="0 0 1480 800"><defs><style>.cls-1,.cls-3{fill:none;stroke-width:5px;}.cls-1{stroke:#2c7cb0;}.cls-1,.cls-3,.cls-4{stroke-miterlimit:10;}.cls-2{fill:#36393a;}.cls-3{stroke:#36393a;}.cls-4{fill:#333;stroke:#333;}</style></defs><title>BDES-38_What is Vendor lock in_0130</title><g id="vendor_lock_in" data-name="vendor lock in"><path class="cls-1" d="M982,131.31a55,55,0,0,1,55.11-53.54,56.19,56.19,0,0,1,13.07,1.44,90.14,90.14,0,0,1,168.52,41.91A55.22,55.22,0,0,1,1201,228.65H995.94a49.66,49.66,0,0,1-14-97.34"/><path class="cls-1" d="M785.44,380.76a55,55,0,0,1,55.11-53.53,55.78,55.78,0,0,1,13.07,1.44,90.14,90.14,0,0,1,168.52,41.91,55.22,55.22,0,0,1-17.68,107.53H799.39a49.67,49.67,0,0,1-13.95-97.35"/><path class="cls-1" d="M1177.77,380.77a55,55,0,0,1,55.11-53.53,56.31,56.31,0,0,1,13.07,1.44,90.14,90.14,0,0,1,168.52,41.91,55.22,55.22,0,0,1-17.68,107.53H1191.72a49.67,49.67,0,0,1-14-97.35"/><path class="cls-2" d="M377.41,683.37V542.45a9.08,9.08,0,0,0-9.09-9.08H279.68a9.08,9.08,0,0,0-9.09,9.08V683.37ZM278,677.46V542.93a3.66,3.66,0,0,1,3.66-3.66h85.09a3.26,3.26,0,0,1,3.25,3.25V677.46Z"/><rect class="cls-2" x="293.03" y="556.46" width="15.24" height="15.24"/><rect class="cls-2" x="316.38" y="556.46" width="15.24" height="15.24"/><rect class="cls-2" x="339.73" y="556.46" width="15.24" height="15.24"/><rect class="cls-2" x="293.03" y="578.93" width="15.24" height="15.24"/><rect class="cls-2" x="316.38" y="578.93" width="15.24" height="15.24"/><rect class="cls-2" x="339.73" y="578.93" width="15.24" height="15.24"/><rect class="cls-2" x="293.03" y="601.4" width="15.24" height="15.24"/><rect class="cls-2" x="316.38" y="601.4" width="15.24" height="15.24"/><rect class="cls-2" x="339.73" y="601.4" width="15.24" height="15.24"/><rect class="cls-2" x="293.03" y="623.87" width="15.24" height="15.24"/><rect class="cls-2" x="316.38" y="623.87" width="15.24" height="15.24"/><rect class="cls-2" x="316.38" y="653.09" width="15.24" height="28.71"/><rect class="cls-2" x="339.73" y="623.87" width="15.24" height="15.24"/><path class="cls-2" d="M256.16,252.19v66a6,6,0,0,1-6,5.95H142.11a6,6,0,0,1-6-5.95v-66a6,6,0,0,1,6-5.95h108.1A6,6,0,0,1,256.16,252.19Zm-5.53,0a.43.43,0,0,0-.42-.42H142.11a.44.44,0,0,0-.42.42v66a.44.44,0,0,0,.42.42h108.1a.43.43,0,0,0,.42-.42Z"/><path class="cls-2" d="M242.49,252.78l-46.42,34-46.43-34h92.85m8.16-5.53H141.48a2.86,2.86,0,0,0-1.69,5.17l54.58,40a2.85,2.85,0,0,0,3.39,0l54.58-40a2.86,2.86,0,0,0-1.69-5.17Z"/><path class="cls-2" d="M974.16,366.39v71.53a6.45,6.45,0,0,1-6.44,6.45H850.61a6.46,6.46,0,0,1-6.45-6.45V366.39a6.46,6.46,0,0,1,6.45-6.44H967.72A6.45,6.45,0,0,1,974.16,366.39Zm-6,0a.46.46,0,0,0-.45-.45H850.61a.46.46,0,0,0-.45.45v71.53a.46.46,0,0,0,.45.46H967.72a.46.46,0,0,0,.45-.46Z"/><path class="cls-2" d="M959.35,367l-50.29,36.83L858.76,367H959.35m8.84-6H849.93a3.1,3.1,0,0,0-1.84,5.6l59.13,43.3a3.11,3.11,0,0,0,3.67,0L970,366.64a3.1,3.1,0,0,0-1.83-5.6Z"/><path class="cls-2" d="M322.81,163.55a3.34,3.34,0,1,1-3.34-3.33A3.34,3.34,0,0,1,322.81,163.55Zm-3.34-28.33a3.33,3.33,0,1,0,3.34,3.33A3.33,3.33,0,0,0,319.47,135.22Zm80-48.8V164c0,3.64-1.93,6.87-4.74,9.42a34.6,34.6,0,0,1-11,6.36c-9,3.44-20.95,5.47-34.22,5.47s-25.25-2-34.21-5.47a34.77,34.77,0,0,1-11.05-6.36c-2.8-2.55-4.74-5.78-4.74-9.42V86.42c0-3.65,1.94-6.88,4.74-9.43a35,35,0,0,1,11.05-6.36c9-3.43,20.94-5.41,34.21-5.41s25.26,2,34.22,5.41a34.79,34.79,0,0,1,11,6.36C397.54,79.54,399.47,82.77,399.47,86.42Zm-93.28-.11c.23,1.26,1.18,2.8,3.28,4.48a32.94,32.94,0,0,0,9.17,4.79c7.85,2.82,18.78,4.64,30.83,4.64s23-1.82,30.84-4.64a32.72,32.72,0,0,0,9.16-4.79c2.11-1.68,3.06-3.22,3.29-4.48a.17.17,0,0,1,0-.1c-.07-1.26-.7-2.63-2.5-4.27a29.34,29.34,0,0,0-9-5.06c-7.91-3-19.24-5-31.83-5s-23.92,2-31.82,5a29.34,29.34,0,0,0-9,5.06c-1.8,1.64-2.43,3-2.5,4.27Zm86.62,62a40.19,40.19,0,0,1-10.11,5.16c-8.85,3.21-20.43,5.1-33.23,5.1s-24.38-1.89-33.23-5.1a40.28,40.28,0,0,1-10.1-5.16V164c0,1.31.65,2.79,2.55,4.53a29.58,29.58,0,0,0,9,5c7.9,3,19.24,5.05,31.82,5.05s23.92-2,31.83-5.05a29.58,29.58,0,0,0,9-5c1.9-1.74,2.55-3.22,2.55-4.53Zm0-25a40.19,40.19,0,0,1-10.11,5.16c-8.85,3.21-20.43,5.1-33.23,5.1s-24.38-1.89-33.23-5.1a40.28,40.28,0,0,1-10.1-5.16v14.27c0,.1,0,.21.05.31.19,1.27,1.11,2.8,3.18,4.48a32.13,32.13,0,0,0,9.11,4.85c7.86,2.85,18.86,4.68,31,4.68s23.14-1.83,31-4.68a32.21,32.21,0,0,0,9.12-4.85c2.07-1.68,3-3.21,3.18-4.48,0-.08,0-.17.05-.26Zm0-26.72a40.23,40.23,0,0,1-10.26,5.26c-8.83,3.18-20.36,5-33.08,5s-24.24-1.87-33.07-5a40.23,40.23,0,0,1-10.26-5.26v16c0,.1,0,.21.05.31.19,1.27,1.11,2.8,3.18,4.48a32.13,32.13,0,0,0,9.11,4.85c7.86,2.85,18.86,4.68,31,4.68s23.14-1.83,31-4.68a32.21,32.21,0,0,0,9.12-4.85c2.07-1.68,3-3.21,3.18-4.48,0-.08,0-.17.05-.26Zm-73.34,12a3.34,3.34,0,1,0,3.34,3.33A3.33,3.33,0,0,0,319.47,108.55Z"/><path class="cls-2" d="M1278.75,434.71a3.61,3.61,0,1,1-3.61-3.61A3.61,3.61,0,0,1,1278.75,434.71ZM1275.14,404a3.61,3.61,0,1,0,3.61,3.61A3.61,3.61,0,0,0,1275.14,404Zm86.67-52.87v84c0,3.94-2.1,7.45-5.14,10.21a37.67,37.67,0,0,1-12,6.88c-9.71,3.73-22.69,5.93-37.07,5.93s-27.36-2.2-37.07-5.93a37.78,37.78,0,0,1-12-6.88c-3-2.76-5.14-6.27-5.14-10.21v-84c0-3.95,2.1-7.45,5.14-10.21a38,38,0,0,1,12-6.89c9.71-3.72,22.7-5.86,37.07-5.86s27.36,2.14,37.07,5.86a37.87,37.87,0,0,1,12,6.89C1359.71,343.7,1361.81,347.2,1361.81,351.15ZM1260.75,351c.24,1.36,1.28,3,3.56,4.85a35.45,35.45,0,0,0,9.93,5.19c8.5,3.06,20.34,5,33.4,5s24.9-2,33.4-5a35.45,35.45,0,0,0,9.93-5.19c2.28-1.81,3.32-3.49,3.56-4.85v-.11c-.07-1.36-.75-2.85-2.71-4.63a31.71,31.71,0,0,0-9.7-5.47c-8.57-3.29-20.85-5.42-34.48-5.42s-25.91,2.13-34.47,5.42a31.65,31.65,0,0,0-9.71,5.47c-2,1.78-2.63,3.27-2.71,4.63Zm93.84,67.14a43.49,43.49,0,0,1-10.95,5.59c-9.59,3.48-22.14,5.53-36,5.53s-26.41-2.05-36-5.53a43.42,43.42,0,0,1-10.94-5.59v17c0,1.42.7,3,2.76,4.9a31.68,31.68,0,0,0,9.71,5.42c8.56,3.28,20.84,5.47,34.47,5.47s25.91-2.19,34.48-5.47a31.74,31.74,0,0,0,9.7-5.42c2.07-1.87,2.77-3.48,2.77-4.9Zm0-27.08a43.48,43.48,0,0,1-10.95,5.58c-9.59,3.48-22.14,5.53-36,5.53s-26.41-2-36-5.53a43.41,43.41,0,0,1-10.94-5.58v15.46c0,.11,0,.22,0,.34.21,1.37,1.2,3,3.44,4.85a34.85,34.85,0,0,0,9.88,5.25c8.51,3.09,20.43,5.08,33.57,5.08s25.06-2,33.57-5.08a34.85,34.85,0,0,0,9.88-5.25c2.24-1.83,3.23-3.48,3.44-4.85a1.27,1.27,0,0,1,.06-.28Zm0-29a43.69,43.69,0,0,1-11.12,5.7c-9.56,3.44-22.06,5.48-35.83,5.48s-26.27-2-35.83-5.48a43.45,43.45,0,0,1-11.11-5.7v17.33c0,.11,0,.22,0,.33.21,1.37,1.2,3,3.44,4.86a34.86,34.86,0,0,0,9.88,5.24c8.51,3.09,20.43,5.08,33.57,5.08s25.06-2,33.57-5.08a34.86,34.86,0,0,0,9.88-5.24c2.24-1.83,3.23-3.49,3.44-4.86a1.57,1.57,0,0,1,.06-.28Zm-79.45,13a3.61,3.61,0,1,0,3.61,3.61A3.61,3.61,0,0,0,1275.14,375.13Z"/><line class="cls-3" x1="1262.62" y1="545.7" x2="1171.7" y2="636.62"/><polygon class="cls-2" points="1249.58 546.75 1261.57 546.75 1261.57 558.74 1266.66 553.65 1266.66 541.66 1254.67 541.66 1249.58 546.75"/><polygon class="cls-2" points="1172.75 623.58 1172.74 635.57 1184.74 635.57 1179.65 640.66 1167.66 640.66 1167.66 628.67 1172.75 623.58"/><line class="cls-3" x1="940.7" y1="545.7" x2="1031.62" y2="636.62"/><polygon class="cls-2" points="941.75 558.74 941.75 546.75 953.74 546.75 948.65 541.66 936.66 541.66 936.66 553.65 941.75 558.74"/><polygon class="cls-2" points="1018.58 635.57 1030.57 635.57 1030.57 623.58 1035.66 628.67 1035.66 640.66 1023.67 640.66 1018.58 635.57"/><line class="cls-3" x1="1102.39" y1="514.93" x2="1102.39" y2="299.71"/><polygon class="cls-2" points="1110.86 504.97 1102.38 513.45 1093.91 504.97 1093.91 512.16 1102.38 520.64 1110.86 512.16 1110.86 504.97"/><polygon class="cls-2" points="1110.86 309.67 1102.38 301.19 1093.91 309.67 1093.91 302.48 1102.38 294 1110.86 302.48 1110.86 309.67"/><g id="Layer_8" data-name="Layer 8"><path class="cls-1" d="M93.5,211c.85-66.13,66.2-115.31,130.25-99.51C303.94-37.63,544.33,19.55,545.68,191.5c110.62,35.22,84.23,206.88-33.78,205.42H120.16A94.88,94.88,0,0,1,93.5,211"/></g><line class="cls-3" x1="324" y1="355.71" x2="324" y2="523.29"/><polygon class="cls-2" points="315.52 365.67 324 357.19 332.48 365.67 332.48 358.48 324 350 315.52 358.48 315.52 365.67"/><polygon class="cls-2" points="315.52 513.33 324 521.81 332.48 513.33 332.48 520.52 324 529 315.52 520.52 315.52 513.33"/><g id="TYPE_OL" data-name="TYPE OL"><path class="cls-2" d="M61.14,65.46A2.86,2.86,0,0,0,60,63.14a11.21,11.21,0,0,0-4-1.61,12.43,12.43,0,0,1-5.23-2.43A5.13,5.13,0,0,1,49,55.05a5.4,5.4,0,0,1,2-4.28,7.76,7.76,0,0,1,5.24-1.71,7.8,7.8,0,0,1,5.59,2,5.82,5.82,0,0,1,2,4.57l0,.09H61a4,4,0,0,0-1.33-3.07,4.87,4.87,0,0,0-3.42-1.21,4.58,4.58,0,0,0-3.2,1A3.41,3.41,0,0,0,51.93,55a2.92,2.92,0,0,0,1.19,2.38,10.93,10.93,0,0,0,4,1.65,12.83,12.83,0,0,1,5.22,2.43,5,5,0,0,1,1.78,3.94A5.44,5.44,0,0,1,62,69.83a8.42,8.42,0,0,1-5.5,1.73,9.55,9.55,0,0,1-5.7-1.77,5.38,5.38,0,0,1-2.39-4.74l0-.09h2.81a3.63,3.63,0,0,0,1.61,3.17,6.22,6.22,0,0,0,3.64,1.11,5.13,5.13,0,0,0,3.4-1.07A3.36,3.36,0,0,0,61.14,65.46Z"/><path class="cls-2" d="M70.79,50.83h-3v-3h3Zm0,20.42h-3V55h3Z"/><path class="cls-2" d="M78,55l.2,2.42a6,6,0,0,1,2.07-2,5.69,5.69,0,0,1,2.87-.72,5.44,5.44,0,0,1,4.14,1.54A6.67,6.67,0,0,1,88.73,61V71.25h-3V61.05a4.29,4.29,0,0,0-.88-3,3.56,3.56,0,0,0-2.67-.9,4.74,4.74,0,0,0-2.4.57,4,4,0,0,0-1.55,1.57v12h-3V55Z"/><path class="cls-2" d="M92.37,63.42a10.74,10.74,0,0,1,1.7-6.32,5.52,5.52,0,0,1,4.79-2.41,5.88,5.88,0,0,1,2.78.63,5.65,5.65,0,0,1,2,1.84L104,55h2.35V71.35a6.1,6.1,0,0,1-1.86,4.79,7.63,7.63,0,0,1-5.32,1.67,11.13,11.13,0,0,1-2.57-.32,10.58,10.58,0,0,1-2.44-.88l.45-2.31a9,9,0,0,0,2.11.75,10.58,10.58,0,0,0,2.42.28,4.57,4.57,0,0,0,3.24-1,4,4,0,0,0,1-3V69.47a5.23,5.23,0,0,1-2,1.56,6.09,6.09,0,0,1-2.63.53,5.73,5.73,0,0,1-4.75-2.14,8.93,8.93,0,0,1-1.7-5.68Zm2.94.32a6.72,6.72,0,0,0,1,3.95,3.64,3.64,0,0,0,3.21,1.48,4.1,4.1,0,0,0,2.31-.61,4.39,4.39,0,0,0,1.53-1.73V59.36a4.54,4.54,0,0,0-1.54-1.65,4.05,4.05,0,0,0-2.27-.61,3.47,3.47,0,0,0-3.23,1.76,8.84,8.84,0,0,0-1,4.56Z"/><path class="cls-2" d="M113.75,71.25h-3V47.81h3Z"/><path class="cls-2" d="M125.37,71.56a7.47,7.47,0,0,1-5.78-2.24,8.27,8.27,0,0,1-2.08-5.88v-.66a8.21,8.21,0,0,1,2.12-5.8,6.78,6.78,0,0,1,5.19-2.29,6,6,0,0,1,4.77,1.87,7.78,7.78,0,0,1,1.62,5.25v1.65H120.57l0,.07a6.31,6.31,0,0,0,1.13,4.11,4.31,4.31,0,0,0,3.7,1.6,8.23,8.23,0,0,0,2.47-.34,10.15,10.15,0,0,0,2-.9l.74,2.1a7.9,7.9,0,0,1-2,1A9.55,9.55,0,0,1,125.37,71.56ZM124.82,57A3.65,3.65,0,0,0,122,58.2a5.23,5.23,0,0,0-1.36,3l0,.1h7.55V61a4.67,4.67,0,0,0-.8-2.88A3.13,3.13,0,0,0,124.82,57Z"/><path class="cls-2" d="M149,69.24a3.94,3.94,0,0,0,2.54-.91,2.74,2.74,0,0,0,1.12-2.22h2.66l0,.1a4.53,4.53,0,0,1-1.88,3.72A6.75,6.75,0,0,1,149,71.56a6.55,6.55,0,0,1-5.32-2.34,8.78,8.78,0,0,1-1.94-5.78v-.63a8.73,8.73,0,0,1,2-5.76,7.14,7.14,0,0,1,9.92-.67,5.18,5.18,0,0,1,1.75,4.12l0,.1h-2.67a3.41,3.41,0,0,0-1.06-2.52,3.81,3.81,0,0,0-5.82.68,7.39,7.39,0,0,0-1.09,4.05v.63a7.46,7.46,0,0,0,1.09,4.09A3.57,3.57,0,0,0,149,69.24Z"/><path class="cls-2" d="M162.31,71.25h-2.95V47.81h2.95Z"/><path class="cls-2" d="M166.07,63a8.8,8.8,0,0,1,2-5.94,7.46,7.46,0,0,1,10.84,0,8.8,8.8,0,0,1,2,5.95v.33a8.81,8.81,0,0,1-2,5.94,7.5,7.5,0,0,1-10.85,0,8.77,8.77,0,0,1-2-5.94Zm3,.33a7.42,7.42,0,0,0,1.13,4.26,4.14,4.14,0,0,0,6.66,0A7.5,7.5,0,0,0,178,63.3V63a7.43,7.43,0,0,0-1.14-4.24,4.1,4.1,0,0,0-6.65,0A7.42,7.42,0,0,0,169,63Z"/><path class="cls-2" d="M195,68.81a5.47,5.47,0,0,1-2,2,5.57,5.57,0,0,1-2.86.71,5.34,5.34,0,0,1-4.22-1.7q-1.51-1.69-1.51-5.28V55h2.95v9.61a5.84,5.84,0,0,0,.8,3.58,3,3,0,0,0,2.46,1,5.1,5.1,0,0,0,2.69-.64,4.11,4.11,0,0,0,1.6-1.84V55h2.95V71.25h-2.64Z"/><path class="cls-2" d="M201.36,63.42a10.67,10.67,0,0,1,1.7-6.32,5.5,5.5,0,0,1,4.78-2.41,6,6,0,0,1,2.61.54,5.5,5.5,0,0,1,1.94,1.57v-9h3V71.25h-2.27l-.46-2.11a5.53,5.53,0,0,1-2,1.82,6.16,6.16,0,0,1-2.79.6,5.72,5.72,0,0,1-4.74-2.14,8.88,8.88,0,0,1-1.71-5.68Zm2.95.32a6.72,6.72,0,0,0,1,3.95,3.64,3.64,0,0,0,3.21,1.48,4.06,4.06,0,0,0,2.3-.61,4.7,4.7,0,0,0,1.53-1.73V59.35a4.69,4.69,0,0,0-1.53-1.65,4.13,4.13,0,0,0-2.27-.6,3.47,3.47,0,0,0-3.23,1.76,8.84,8.84,0,0,0-1.05,4.56Z"/><path class="cls-2" d="M787.13,67.17h.09l7.19-17.79h3.67V71.25h-3V54.72H795l-6.83,16.54h-2.05l-7-17.06-.09,0v17h-3V49.38H780Z"/><path class="cls-2" d="M813.16,68.81a5.42,5.42,0,0,1-2,2,5.53,5.53,0,0,1-2.85.71,5.33,5.33,0,0,1-4.22-1.7q-1.52-1.69-1.52-5.28V55h3v9.61a5.91,5.91,0,0,0,.8,3.58,3,3,0,0,0,2.47,1,5.13,5.13,0,0,0,2.69-.64,4,4,0,0,0,1.59-1.84V55h3V71.25h-2.64Z"/><path class="cls-2" d="M823.46,71.25h-3V47.81h3Z"/><path class="cls-2" d="M831.66,51.08V55h3.64v2.19h-3.64V67a2.56,2.56,0,0,0,.42,1.65,1.41,1.41,0,0,0,1.13.49,5.31,5.31,0,0,0,.93-.08,3.47,3.47,0,0,0,.79-.21l.65,2a4,4,0,0,1-1.38.51,8.45,8.45,0,0,1-1.76.19,3.34,3.34,0,0,1-2.73-1.24,6.13,6.13,0,0,1-1-3.88V57.19h-2.52V55h2.52V51.08Z"/><path class="cls-2" d="M841.35,50.83h-3v-3h3Zm0,20.42h-3V55h3Z"/><path class="cls-2" d="M855.19,61.53h-9V59.21h9Z"/><path class="cls-2" d="M866.32,69.24a4,4,0,0,0,2.54-.91A2.76,2.76,0,0,0,870,66.11h2.66l0,.1a4.55,4.55,0,0,1-1.87,3.72,6.79,6.79,0,0,1-4.47,1.63A6.54,6.54,0,0,1,861,69.22a8.73,8.73,0,0,1-2-5.78v-.63a8.73,8.73,0,0,1,2-5.76,6.57,6.57,0,0,1,5.32-2.36,6.5,6.5,0,0,1,4.6,1.69,5.22,5.22,0,0,1,1.76,4.12l0,.1H870a3.41,3.41,0,0,0-1.06-2.52,3.81,3.81,0,0,0-5.82.68A7.48,7.48,0,0,0,862,62.81v.63a7.54,7.54,0,0,0,1.09,4.09A3.57,3.57,0,0,0,866.32,69.24Z"/><path class="cls-2" d="M879.66,71.25h-2.95V47.81h2.95Z"/><path class="cls-2" d="M883.43,63a8.75,8.75,0,0,1,2-5.94,7.45,7.45,0,0,1,10.83,0,8.8,8.8,0,0,1,2,5.95v.33a8.81,8.81,0,0,1-2,5.94,7.49,7.49,0,0,1-10.84,0,8.72,8.72,0,0,1-2-5.94Zm3,.33a7.5,7.5,0,0,0,1.13,4.26,4.14,4.14,0,0,0,6.66,0,7.5,7.5,0,0,0,1.13-4.26V63a7.43,7.43,0,0,0-1.14-4.24,4.1,4.1,0,0,0-6.65,0A7.5,7.5,0,0,0,886.38,63Z"/><path class="cls-2" d="M912.32,68.81a5.49,5.49,0,0,1-2,2,5.57,5.57,0,0,1-2.86.71,5.34,5.34,0,0,1-4.22-1.7q-1.51-1.69-1.51-5.28V55h2.95v9.61a5.91,5.91,0,0,0,.8,3.58,3,3,0,0,0,2.47,1,5.09,5.09,0,0,0,2.68-.64,4.11,4.11,0,0,0,1.6-1.84V55h2.95V71.25h-2.64Z"/><path class="cls-2" d="M918.71,63.42a10.67,10.67,0,0,1,1.7-6.32,5.52,5.52,0,0,1,4.78-2.41,6,6,0,0,1,2.61.54,5.41,5.41,0,0,1,1.94,1.57v-9h3V71.25h-2.26L930,69.14A5.37,5.37,0,0,1,928,71a6.16,6.16,0,0,1-2.79.6,5.72,5.72,0,0,1-4.74-2.14,8.88,8.88,0,0,1-1.71-5.68Zm2.95.32a6.79,6.79,0,0,0,1,3.95,3.64,3.64,0,0,0,3.21,1.48,4.06,4.06,0,0,0,2.3-.61,4.7,4.7,0,0,0,1.53-1.73V59.35a4.69,4.69,0,0,0-1.53-1.65,4.13,4.13,0,0,0-2.27-.6,3.47,3.47,0,0,0-3.23,1.76,8.84,8.84,0,0,0-1.05,4.56Z"/><path class="cls-2" d="M920.43,727.85l0,.1a6.5,6.5,0,0,1-2.21,5.14,8.47,8.47,0,0,1-6,2.07,7.93,7.93,0,0,1-6.17-2.62,9.58,9.58,0,0,1-2.38-6.67V722a9.61,9.61,0,0,1,2.38-6.67,7.88,7.88,0,0,1,6.17-2.65,8.72,8.72,0,0,1,6,2,6.48,6.48,0,0,1,2.17,5.24l0,.09H917.6a4.75,4.75,0,0,0-1.39-3.62A5.39,5.39,0,0,0,912.3,715a4.86,4.86,0,0,0-4.07,2,7.89,7.89,0,0,0-1.52,5v3.92a7.89,7.89,0,0,0,1.52,5,4.87,4.87,0,0,0,4.07,2,5.43,5.43,0,0,0,3.91-1.33,4.82,4.82,0,0,0,1.39-3.66Z"/><path class="cls-2" d="M923.13,726.57a8.8,8.8,0,0,1,2-5.94,7.45,7.45,0,0,1,10.83,0,8.81,8.81,0,0,1,2,6v.33a8.76,8.76,0,0,1-2,5.94,6.72,6.72,0,0,1-5.4,2.32,6.79,6.79,0,0,1-5.44-2.32,8.77,8.77,0,0,1-2-5.94Zm3,.33a7.5,7.5,0,0,0,1.13,4.26,3.8,3.8,0,0,0,3.36,1.68,3.73,3.73,0,0,0,3.3-1.68A7.42,7.42,0,0,0,935,726.9v-.33a7.43,7.43,0,0,0-1.14-4.24,4.1,4.1,0,0,0-6.65,0,7.5,7.5,0,0,0-1.13,4.24Z"/><path class="cls-2" d="M944.11,718.6l.21,2.14a5.71,5.71,0,0,1,2.07-1.81,6.33,6.33,0,0,1,2.93-.64,5.73,5.73,0,0,1,3,.77,4.6,4.6,0,0,1,1.89,2.31,5.92,5.92,0,0,1,2.07-2.25,5.56,5.56,0,0,1,3.06-.83A5.41,5.41,0,0,1,963.6,720a7.44,7.44,0,0,1,1.54,5.13v9.72h-2.95V725.1a4.94,4.94,0,0,0-.93-3.4,3.58,3.58,0,0,0-2.76-1,3.29,3.29,0,0,0-2.59,1.09,4.65,4.65,0,0,0-1.12,2.75v10.31h-3V725.1a4.93,4.93,0,0,0-1-3.34,3.5,3.5,0,0,0-2.75-1.06,4.31,4.31,0,0,0-2.32.57,3.6,3.6,0,0,0-1.38,1.58v12h-3V718.6Z"/><path class="cls-2" d="M983.39,727.34a8.87,8.87,0,0,1-1.7,5.68,5.69,5.69,0,0,1-4.73,2.14,6.79,6.79,0,0,1-2.71-.51,5.19,5.19,0,0,1-2-1.53v8h-2.95V718.6h2.26l.47,2.16a5.49,5.49,0,0,1,2-1.84,6.11,6.11,0,0,1,2.85-.63,5.49,5.49,0,0,1,4.75,2.41,10.67,10.67,0,0,1,1.71,6.32Zm-2.93-.32a8.35,8.35,0,0,0-1.13-4.54A3.65,3.65,0,0,0,976,720.7a4.1,4.1,0,0,0-2.27.59,4.31,4.31,0,0,0-1.5,1.61v7.76a4,4,0,0,0,3.8,2.18,3.81,3.81,0,0,0,3.27-1.53,6.64,6.64,0,0,0,1.12-4Z"/><path class="cls-2" d="M996.68,734.85c-.1-.45-.17-.86-.23-1.23a10.83,10.83,0,0,1-.12-1.13,6.71,6.71,0,0,1-2.05,1.91,5.31,5.31,0,0,1-2.81.76,5.44,5.44,0,0,1-3.92-1.3,4.7,4.7,0,0,1-1.36-3.57,4.23,4.23,0,0,1,1.88-3.65,8.87,8.87,0,0,1,5.15-1.32h3.11v-1.61a3,3,0,0,0-.83-2.26,3.4,3.4,0,0,0-2.48-.82,3.52,3.52,0,0,0-2.31.71,2.18,2.18,0,0,0-.85,1.73l-2.81,0V723a3.87,3.87,0,0,1,1.61-3.25,6.77,6.77,0,0,1,4.54-1.47,6.62,6.62,0,0,1,4.45,1.41,5,5,0,0,1,1.65,4v7.83a15.45,15.45,0,0,0,.09,1.7,8.74,8.74,0,0,0,.34,1.58Zm-4.77-2.15a4.94,4.94,0,0,0,2.84-.82,3.85,3.85,0,0,0,1.58-1.89v-2.67h-3.2a4.41,4.41,0,0,0-2.92.9,2.72,2.72,0,0,0-1.07,2.13,2.21,2.21,0,0,0,.7,1.71A3,3,0,0,0,991.91,732.7Z"/><path class="cls-2" d="M1006.35,718.6l.2,2.42a5.85,5.85,0,0,1,2.07-2,5.69,5.69,0,0,1,2.87-.72,5.44,5.44,0,0,1,4.14,1.54,6.67,6.67,0,0,1,1.47,4.76v10.26h-3v-10.2a4.34,4.34,0,0,0-.87-3,3.56,3.56,0,0,0-2.67-.9,4.74,4.74,0,0,0-2.4.57,4.13,4.13,0,0,0-1.56,1.57v12h-2.95V718.6Z"/><path class="cls-2" d="M1026.33,728.84l.55,2.09h.09l4.11-12.33h3.28l-7,18.75a8.54,8.54,0,0,1-1.8,2.85,4.14,4.14,0,0,1-3.15,1.21,7,7,0,0,1-.93-.07c-.36-.06-.64-.11-.84-.16l.3-2.33.5,0,.83,0a1.85,1.85,0,0,0,1.57-.81,9.83,9.83,0,0,0,1.07-1.91l.73-1.69-6.17-15.92h3.28Z"/><path class="cls-2" d="M1047.58,720.79a5.79,5.79,0,0,1,2.1-1.84,5.92,5.92,0,0,1,2.79-.66,5.41,5.41,0,0,1,4.14,1.56,6.82,6.82,0,0,1,1.47,4.81v10.19h-2.95V724.63a4.25,4.25,0,0,0-.9-3,3.45,3.45,0,0,0-2.65-1,5.09,5.09,0,0,0-2.38.53,4.32,4.32,0,0,0-1.62,1.5v12.12h-2.95V711.41h2.95Z"/><path class="cls-2" d="M1072,734.85c-.1-.45-.17-.86-.23-1.23s-.09-.75-.12-1.13a6.71,6.71,0,0,1-2.05,1.91,5.28,5.28,0,0,1-2.8.76,5.47,5.47,0,0,1-3.93-1.3,4.74,4.74,0,0,1-1.36-3.57,4.21,4.21,0,0,1,1.89-3.65,8.82,8.82,0,0,1,5.15-1.32h3.1v-1.61a3,3,0,0,0-.83-2.26,3.39,3.39,0,0,0-2.48-.82,3.48,3.48,0,0,0-2.3.71,2.15,2.15,0,0,0-.85,1.73l-2.82,0V723a3.87,3.87,0,0,1,1.61-3.25,6.79,6.79,0,0,1,4.54-1.47,6.62,6.62,0,0,1,4.45,1.41,5,5,0,0,1,1.65,4v7.83a15.45,15.45,0,0,0,.09,1.7,8,8,0,0,0,.35,1.58Zm-4.77-2.15a4.92,4.92,0,0,0,2.84-.82,3.8,3.8,0,0,0,1.58-1.89v-2.67h-3.2a4.37,4.37,0,0,0-2.91.9,2.69,2.69,0,0,0-1.07,2.13,2.2,2.2,0,0,0,.69,1.71A3,3,0,0,0,1067.22,732.7Z"/><path class="cls-2" d="M1088.82,730.48a2,2,0,0,0-.77-1.6,7.67,7.67,0,0,0-2.89-1.07,12.23,12.23,0,0,1-4.51-1.73,3.51,3.51,0,0,1-1.57-3,4.27,4.27,0,0,1,1.72-3.4,7.72,7.72,0,0,1,9,.09,4.29,4.29,0,0,1,1.67,3.5l0,.09h-2.82a2.52,2.52,0,0,0-1-1.89,3.51,3.51,0,0,0-2.44-.86,3.57,3.57,0,0,0-2.41.71,2.13,2.13,0,0,0-.8,1.67,1.76,1.76,0,0,0,.69,1.48,7.59,7.59,0,0,0,2.85,1,12,12,0,0,1,4.62,1.78,3.58,3.58,0,0,1,1.57,3,4.25,4.25,0,0,1-1.78,3.53,7.46,7.46,0,0,1-4.66,1.36,7.33,7.33,0,0,1-5-1.57,4.47,4.47,0,0,1-1.73-3.68l0-.09h2.81a2.7,2.7,0,0,0,1.21,2.29,4.85,4.85,0,0,0,2.65.73,4.31,4.31,0,0,0,2.56-.66A2,2,0,0,0,1088.82,730.48Z"/><path class="cls-2" d="M1105.74,718.6l.2,2.14a5.74,5.74,0,0,1,2.08-1.81,6.28,6.28,0,0,1,2.92-.64,5.7,5.7,0,0,1,3,.77,4.62,4.62,0,0,1,1.9,2.31,6,6,0,0,1,2.06-2.25,5.61,5.61,0,0,1,3.06-.83,5.39,5.39,0,0,1,4.22,1.71,7.44,7.44,0,0,1,1.55,5.13v9.72h-3V725.1a4.94,4.94,0,0,0-.93-3.4,3.58,3.58,0,0,0-2.76-1,3.28,3.28,0,0,0-2.59,1.09,4.65,4.65,0,0,0-1.13,2.75v10.31h-3V725.1a4.88,4.88,0,0,0-1-3.34,3.49,3.49,0,0,0-2.75-1.06,4.34,4.34,0,0,0-2.32.57,3.6,3.6,0,0,0-1.38,1.58v12h-3V718.6Z"/><path class="cls-2" d="M1130.22,726.57a8.8,8.8,0,0,1,2-5.94,7.46,7.46,0,0,1,10.84,0,8.8,8.8,0,0,1,2,6v.33a8.81,8.81,0,0,1-2,5.94,7.5,7.5,0,0,1-10.85,0,8.77,8.77,0,0,1-2-5.94Zm3,.33a7.42,7.42,0,0,0,1.13,4.26,3.77,3.77,0,0,0,3.35,1.68,3.72,3.72,0,0,0,3.3-1.68,7.43,7.43,0,0,0,1.14-4.26v-.33a7.43,7.43,0,0,0-1.14-4.24,4.1,4.1,0,0,0-6.65,0,7.42,7.42,0,0,0-1.13,4.24Z"/><path class="cls-2" d="M1156.39,721.23l-1.53-.1a3.55,3.55,0,0,0-2.06.57,3.58,3.58,0,0,0-1.28,1.59v11.56h-3V718.6h2.65l.21,2.52a5.59,5.59,0,0,1,1.75-2.07,4.15,4.15,0,0,1,2.46-.76,4.4,4.4,0,0,1,.65.05l.51.12Z"/><path class="cls-2" d="M1165.64,735.16a7.49,7.49,0,0,1-5.78-2.24,8.31,8.31,0,0,1-2.07-5.88v-.66a8.2,8.2,0,0,1,2.11-5.8,6.8,6.8,0,0,1,5.2-2.29,6,6,0,0,1,4.76,1.87,7.73,7.73,0,0,1,1.63,5.25v1.65h-10.64l0,.07a6.25,6.25,0,0,0,1.12,4.11,4.32,4.32,0,0,0,3.7,1.6,8.19,8.19,0,0,0,2.47-.34,9.9,9.9,0,0,0,2-.9l.74,2.1a7.73,7.73,0,0,1-2,1A9.51,9.51,0,0,1,1165.64,735.16Zm-.54-14.53a3.65,3.65,0,0,0-2.79,1.17,5.15,5.15,0,0,0-1.35,3l0,.1h7.55v-.31a4.61,4.61,0,0,0-.81-2.88A3.11,3.11,0,0,0,1165.1,720.63Z"/><path class="cls-2" d="M1183.64,734.85V720.79h-2.59V718.6h2.59v-2.06a5.55,5.55,0,0,1,1.39-4,5.14,5.14,0,0,1,3.85-1.42,6.53,6.53,0,0,1,1.07.09c.36.06.74.13,1.13.22l-.36,2.27a4.55,4.55,0,0,0-.67-.12,5.34,5.34,0,0,0-.81,0,2.43,2.43,0,0,0-2,.79,3.44,3.44,0,0,0-.65,2.24v2.06h3.5v2.19h-3.5v14.06Z"/><path class="cls-2" d="M1196,734.85h-3V711.41h3Z"/><path class="cls-2" d="M1207.64,735.16a7.49,7.49,0,0,1-5.78-2.24,8.31,8.31,0,0,1-2.07-5.88v-.66a8.2,8.2,0,0,1,2.11-5.8,6.8,6.8,0,0,1,5.2-2.29,6,6,0,0,1,4.76,1.87,7.73,7.73,0,0,1,1.63,5.25v1.65h-10.64l0,.07a6.25,6.25,0,0,0,1.12,4.11,4.32,4.32,0,0,0,3.7,1.6,8.19,8.19,0,0,0,2.47-.34,9.9,9.9,0,0,0,2-.9l.74,2.1a7.73,7.73,0,0,1-2,1A9.51,9.51,0,0,1,1207.64,735.16Zm-.54-14.53a3.65,3.65,0,0,0-2.79,1.17,5.15,5.15,0,0,0-1.35,3l0,.1h7.55v-.31a4.61,4.61,0,0,0-.81-2.88A3.11,3.11,0,0,0,1207.1,720.63Z"/><path class="cls-2" d="M1222.49,724.59l3.58-6h3.43l-5.39,8,5.57,8.22h-3.41l-3.73-6.12-3.72,6.12h-3.44l5.56-8.22-5.39-8H1219Z"/><path class="cls-2" d="M1235.68,714.43h-3v-3h3Zm0,20.42h-3V718.6h3Z"/><path class="cls-2" d="M1254.27,727.34a8.88,8.88,0,0,1-1.71,5.68,5.72,5.72,0,0,1-4.74,2.14,6.07,6.07,0,0,1-2.89-.64,5.17,5.17,0,0,1-2-1.9l-.48,2.23h-2.27V711.41h2.95v9.18a5.52,5.52,0,0,1,2-1.71,6,6,0,0,1,2.72-.59,5.51,5.51,0,0,1,4.77,2.41,10.67,10.67,0,0,1,1.71,6.32Zm-3-.32a8.84,8.84,0,0,0-1.06-4.56,3.47,3.47,0,0,0-3.21-1.76,4.11,4.11,0,0,0-2.4.67,4.71,4.71,0,0,0-1.54,1.81v7a4.78,4.78,0,0,0,1.54,1.89,4.06,4.06,0,0,0,2.43.68,3.64,3.64,0,0,0,3.2-1.48,6.79,6.79,0,0,0,1-3.95Z"/><path class="cls-2" d="M1261,714.43h-3v-3h3Zm0,20.42h-3V718.6h3Z"/><path class="cls-2" d="M1268.71,734.85h-3V711.41h3Z"/><path class="cls-2" d="M1276.41,714.43h-3v-3h3Zm0,20.42h-3V718.6h3Z"/><path class="cls-2" d="M1284.61,714.68v3.92h3.64v2.19h-3.64v9.84a2.49,2.49,0,0,0,.43,1.65,1.39,1.39,0,0,0,1.12.49,5.5,5.5,0,0,0,.94-.08,3.51,3.51,0,0,0,.78-.21l.66,2a4.15,4.15,0,0,1-1.39.51,8.38,8.38,0,0,1-1.76.19,3.31,3.31,0,0,1-2.72-1.24,6.13,6.13,0,0,1-1-3.88v-9.25h-2.52V718.6h2.52v-3.92Z"/><path class="cls-2" d="M1296.14,728.84l.55,2.09h.1l4.1-12.33h3.29l-7,18.75a8.39,8.39,0,0,1-1.8,2.85,4.14,4.14,0,0,1-3.15,1.21,6.79,6.79,0,0,1-.92-.07c-.37-.06-.65-.11-.85-.16l.3-2.33.51,0,.82,0a1.88,1.88,0,0,0,1.58-.81,9.82,9.82,0,0,0,1.06-1.91l.73-1.69-6.17-15.92h3.28Z"/><path class="cls-2" d="M918.51,767.33l.39,2.17h.1l.42-2.17L922.75,757h2.36l3.32,10.33.47,2.42h.1l.5-2.42L932,757h3.08l-4.81,16.25h-2.39l-3.32-9.89-.62-2.59h-.1l-.57,2.59L920,773.25h-2.38L912.81,757h3.08Z"/><path class="cls-2" d="M941.07,752.83h-3v-3h3Zm0,20.42h-3V757h3Z"/><path class="cls-2" d="M949.28,753.08V757h3.64v2.19h-3.64V769a2.56,2.56,0,0,0,.42,1.65,1.4,1.4,0,0,0,1.12.49,5.34,5.34,0,0,0,.94-.08,3.22,3.22,0,0,0,.78-.21l.66,2a4,4,0,0,1-1.38.51,8.45,8.45,0,0,1-1.76.19,3.32,3.32,0,0,1-2.73-1.24,6.13,6.13,0,0,1-1-3.88v-9.25h-2.51V757h2.51v-3.92Z"/><path class="cls-2" d="M958.7,759.19a5.79,5.79,0,0,1,2.1-1.84,5.92,5.92,0,0,1,2.79-.66,5.41,5.41,0,0,1,4.14,1.56,6.82,6.82,0,0,1,1.47,4.81v10.19h-3V763a4.25,4.25,0,0,0-.9-3,3.45,3.45,0,0,0-2.65-1,5.07,5.07,0,0,0-2.38.53,4.25,4.25,0,0,0-1.62,1.5v12.12h-3V749.81h3Z"/><path class="cls-2" d="M983.79,757l.21,2.14a5.71,5.71,0,0,1,2.07-1.81,6.33,6.33,0,0,1,2.93-.64,5.73,5.73,0,0,1,3,.77,4.6,4.6,0,0,1,1.89,2.31,5.92,5.92,0,0,1,2.07-2.25,5.56,5.56,0,0,1,3.06-.83,5.41,5.41,0,0,1,4.22,1.71,7.44,7.44,0,0,1,1.54,5.13v9.72h-3V763.5a4.94,4.94,0,0,0-.93-3.4,3.58,3.58,0,0,0-2.76-1,3.29,3.29,0,0,0-2.59,1.09,4.72,4.72,0,0,0-1.13,2.75v10.31h-3V763.5a4.93,4.93,0,0,0-1-3.34,3.5,3.5,0,0,0-2.75-1.06,4.31,4.31,0,0,0-2.32.57,3.6,3.6,0,0,0-1.38,1.58v12h-3V757Z"/><path class="cls-2" d="M1019.54,770.81a5.47,5.47,0,0,1-2,2,5.6,5.6,0,0,1-2.86.71,5.34,5.34,0,0,1-4.22-1.7q-1.51-1.7-1.52-5.28V757h3v9.61a5.92,5.92,0,0,0,.79,3.58,3,3,0,0,0,2.47,1,5.1,5.1,0,0,0,2.69-.64,4,4,0,0,0,1.59-1.84V757h3v16.25h-2.64Z"/><path class="cls-2" d="M1029.84,773.25h-2.95V749.81h2.95Z"/><path class="cls-2" d="M1038,753.08V757h3.64v2.19H1038V769a2.56,2.56,0,0,0,.42,1.65,1.42,1.42,0,0,0,1.13.49,5.5,5.5,0,0,0,.94-.08,3.51,3.51,0,0,0,.78-.21l.65,2a4,4,0,0,1-1.38.51,8.38,8.38,0,0,1-1.76.19,3.31,3.31,0,0,1-2.72-1.24,6.13,6.13,0,0,1-1-3.88v-9.25h-2.52V757h2.52v-3.92Z"/><path class="cls-2" d="M1047.73,752.83h-3v-3h3Zm0,20.42h-3V757h3Z"/><path class="cls-2" d="M1066.29,765.74a8.87,8.87,0,0,1-1.7,5.68,5.7,5.7,0,0,1-4.73,2.14,6.72,6.72,0,0,1-2.71-.51,5.19,5.19,0,0,1-2-1.53v8h-3V757h2.27l.47,2.16a5.49,5.49,0,0,1,2-1.84,6.1,6.1,0,0,1,2.84-.63,5.49,5.49,0,0,1,4.76,2.41,10.67,10.67,0,0,1,1.71,6.32Zm-2.93-.32a8.35,8.35,0,0,0-1.13-4.54,3.65,3.65,0,0,0-3.3-1.78,4.09,4.09,0,0,0-2.26.59,4.31,4.31,0,0,0-1.5,1.61v7.76a4,4,0,0,0,3.79,2.18,3.81,3.81,0,0,0,3.28-1.53,6.64,6.64,0,0,0,1.12-4Z"/><path class="cls-2" d="M1073.06,773.25h-3V749.81h3Z"/><path class="cls-2" d="M1084.68,773.56a7.47,7.47,0,0,1-5.78-2.24,8.31,8.31,0,0,1-2.08-5.88v-.66a8.21,8.21,0,0,1,2.12-5.8,6.79,6.79,0,0,1,5.2-2.29,6,6,0,0,1,4.76,1.87,7.73,7.73,0,0,1,1.63,5.25v1.65h-10.64l0,.07a6.25,6.25,0,0,0,1.12,4.11,4.32,4.32,0,0,0,3.7,1.6,8.23,8.23,0,0,0,2.47-.34,9.9,9.9,0,0,0,2-.9l.74,2.1a7.73,7.73,0,0,1-2,1A9.51,9.51,0,0,1,1084.68,773.56Zm-.54-14.53a3.65,3.65,0,0,0-2.79,1.17,5.15,5.15,0,0,0-1.35,3l0,.1h7.54V763a4.61,4.61,0,0,0-.8-2.88A3.11,3.11,0,0,0,1084.14,759Z"/><path class="cls-2" d="M1108.4,771.24a3.94,3.94,0,0,0,2.54-.91,2.74,2.74,0,0,0,1.12-2.22h2.65l0,.1a4.56,4.56,0,0,1-1.88,3.72,6.75,6.75,0,0,1-4.47,1.63,6.55,6.55,0,0,1-5.32-2.34,8.78,8.78,0,0,1-1.94-5.78v-.63a8.73,8.73,0,0,1,1.95-5.76,6.53,6.53,0,0,1,5.31-2.36,6.46,6.46,0,0,1,4.6,1.69,5.19,5.19,0,0,1,1.76,4.12l0,.1h-2.67a3.45,3.45,0,0,0-1.06-2.52,3.81,3.81,0,0,0-5.82.68,7.39,7.39,0,0,0-1.09,4v.63a7.46,7.46,0,0,0,1.09,4.09A3.57,3.57,0,0,0,1108.4,771.24Z"/><path class="cls-2" d="M1121.75,773.25h-3V749.81h3Z"/><path class="cls-2" d="M1125.51,765a8.8,8.8,0,0,1,2-5.94,7.46,7.46,0,0,1,10.84,0,8.8,8.8,0,0,1,2,6v.33a8.81,8.81,0,0,1-2,5.94,7.5,7.5,0,0,1-10.85,0,8.77,8.77,0,0,1-2-5.94Zm3,.33a7.43,7.43,0,0,0,1.14,4.26,3.77,3.77,0,0,0,3.35,1.68,3.72,3.72,0,0,0,3.3-1.68,7.43,7.43,0,0,0,1.14-4.26V765a7.43,7.43,0,0,0-1.14-4.24,4.1,4.1,0,0,0-6.65,0,7.43,7.43,0,0,0-1.14,4.24Z"/><path class="cls-2" d="M1154.4,770.81a5.47,5.47,0,0,1-2,2,5.6,5.6,0,0,1-2.86.71,5.34,5.34,0,0,1-4.22-1.7q-1.51-1.7-1.52-5.28V757h3v9.61a5.92,5.92,0,0,0,.79,3.58,3,3,0,0,0,2.47,1,5.13,5.13,0,0,0,2.69-.64,4,4,0,0,0,1.59-1.84V757h3v16.25h-2.64Z"/><path class="cls-2" d="M1160.79,765.42a10.67,10.67,0,0,1,1.71-6.32,5.5,5.5,0,0,1,4.78-2.41,6,6,0,0,1,2.61.54,5.38,5.38,0,0,1,1.93,1.57v-9h3v23.44h-2.27l-.47-2.11a5.42,5.42,0,0,1-2,1.82,6.16,6.16,0,0,1-2.79.6,5.74,5.74,0,0,1-4.75-2.14,8.88,8.88,0,0,1-1.71-5.68Zm3,.32a6.72,6.72,0,0,0,1,4,3.64,3.64,0,0,0,3.21,1.48,4.09,4.09,0,0,0,2.3-.61,4.59,4.59,0,0,0,1.52-1.73v-7.48a4.51,4.51,0,0,0-1.53-1.65,4.1,4.1,0,0,0-2.26-.6,3.5,3.5,0,0,0-3.24,1.76,8.85,8.85,0,0,0-1,4.56Z"/><path class="cls-2" d="M1190.37,768.46l.28,1.23h.1l.31-1.23,3.86-11.46h3l-6.12,16.25h-2.24L1183.4,757h3Z"/><path class="cls-2" d="M1207.23,773.56a7.46,7.46,0,0,1-5.78-2.24,8.27,8.27,0,0,1-2.08-5.88v-.66a8.21,8.21,0,0,1,2.12-5.8,6.78,6.78,0,0,1,5.19-2.29,6,6,0,0,1,4.77,1.87,7.78,7.78,0,0,1,1.62,5.25v1.65h-10.64l0,.07a6.31,6.31,0,0,0,1.13,4.11,4.31,4.31,0,0,0,3.7,1.6,8.23,8.23,0,0,0,2.47-.34,10.15,10.15,0,0,0,2-.9l.73,2.1a7.65,7.65,0,0,1-2,1A9.59,9.59,0,0,1,1207.23,773.56Zm-.55-14.53a3.68,3.68,0,0,0-2.79,1.17,5.28,5.28,0,0,0-1.35,3l0,.1h7.55V763a4.67,4.67,0,0,0-.8-2.88A3.13,3.13,0,0,0,1206.68,759Z"/><path class="cls-2" d="M1219.17,757l.2,2.42a5.85,5.85,0,0,1,2.07-2,5.69,5.69,0,0,1,2.87-.72,5.44,5.44,0,0,1,4.14,1.54,6.67,6.67,0,0,1,1.47,4.76v10.26h-3v-10.2a4.34,4.34,0,0,0-.87-3,3.56,3.56,0,0,0-2.67-.9,4.74,4.74,0,0,0-2.4.57,4.13,4.13,0,0,0-1.56,1.57v12h-3V757Z"/><path class="cls-2" d="M1233.4,765.42a10.67,10.67,0,0,1,1.71-6.32,5.49,5.49,0,0,1,4.78-2.41,6,6,0,0,1,2.61.54,5.38,5.38,0,0,1,1.93,1.57v-9h3v23.44h-2.27l-.47-2.11a5.37,5.37,0,0,1-2,1.82,6.09,6.09,0,0,1-2.78.6,5.73,5.73,0,0,1-4.75-2.14,8.88,8.88,0,0,1-1.71-5.68Zm3,.32a6.79,6.79,0,0,0,1,4,3.67,3.67,0,0,0,3.22,1.48,4.09,4.09,0,0,0,2.3-.61,4.59,4.59,0,0,0,1.52-1.73v-7.48a4.51,4.51,0,0,0-1.53-1.65,4.1,4.1,0,0,0-2.26-.6,3.5,3.5,0,0,0-3.24,1.76,8.85,8.85,0,0,0-1,4.56Z"/><path class="cls-2" d="M1251,765a8.75,8.75,0,0,1,2-5.94,7.45,7.45,0,0,1,10.83,0,8.8,8.8,0,0,1,2,6v.33a8.81,8.81,0,0,1-2,5.94,7.49,7.49,0,0,1-10.84,0,8.72,8.72,0,0,1-2-5.94Zm3,.33a7.5,7.5,0,0,0,1.13,4.26,4.14,4.14,0,0,0,6.66,0,7.5,7.5,0,0,0,1.13-4.26V765a7.43,7.43,0,0,0-1.14-4.24,4.1,4.1,0,0,0-6.65,0A7.5,7.5,0,0,0,1254,765Z"/><path class="cls-2" d="M1277.17,759.63l-1.53-.1a3.41,3.41,0,0,0-3.35,2.16v11.56h-3V757H1272l.2,2.52a5.62,5.62,0,0,1,1.76-2.07,4.1,4.1,0,0,1,2.46-.76,4.51,4.51,0,0,1,.65,0l.5.12Z"/><path class="cls-2" d="M1290,768.88a2,2,0,0,0-.77-1.6,7.67,7.67,0,0,0-2.89-1.07,12.23,12.23,0,0,1-4.51-1.73,3.51,3.51,0,0,1-1.57-3,4.27,4.27,0,0,1,1.72-3.4,7.72,7.72,0,0,1,9,.09,4.29,4.29,0,0,1,1.67,3.5l0,.09h-2.82a2.52,2.52,0,0,0-1-1.89,3.51,3.51,0,0,0-2.44-.86,3.57,3.57,0,0,0-2.41.71,2.14,2.14,0,0,0-.81,1.67,1.77,1.77,0,0,0,.7,1.48,7.59,7.59,0,0,0,2.85,1,12,12,0,0,1,4.62,1.78,3.58,3.58,0,0,1,1.57,3,4.25,4.25,0,0,1-1.78,3.53,7.46,7.46,0,0,1-4.66,1.36,7.33,7.33,0,0,1-5-1.57,4.47,4.47,0,0,1-1.73-3.68l0-.09h2.81a2.7,2.7,0,0,0,1.21,2.29,4.85,4.85,0,0,0,2.65.73,4.31,4.31,0,0,0,2.56-.66A2,2,0,0,0,1290,768.88Z"/><path class="cls-2" d="M193.73,730.25l0,.1a6.5,6.5,0,0,1-2.21,5.14,8.47,8.47,0,0,1-6,2.07,7.93,7.93,0,0,1-6.17-2.62,9.58,9.58,0,0,1-2.38-6.67v-3.89a9.61,9.61,0,0,1,2.38-6.67,7.88,7.88,0,0,1,6.17-2.65,8.72,8.72,0,0,1,6,2,6.48,6.48,0,0,1,2.17,5.24l0,.09H190.9a4.78,4.78,0,0,0-1.38-3.62,5.43,5.43,0,0,0-3.92-1.33,4.86,4.86,0,0,0-4.07,2,8,8,0,0,0-1.52,5v3.92a8,8,0,0,0,1.52,5,4.87,4.87,0,0,0,4.07,2,5.47,5.47,0,0,0,3.92-1.33,4.85,4.85,0,0,0,1.38-3.66Z"/><path class="cls-2" d="M196.43,729a8.8,8.8,0,0,1,2-5.94,7.46,7.46,0,0,1,10.84,0,8.86,8.86,0,0,1,2,6v.33a8.76,8.76,0,0,1-2,5.94,6.72,6.72,0,0,1-5.4,2.32,6.8,6.8,0,0,1-5.44-2.32,8.77,8.77,0,0,1-2-5.94Zm2.95.33a7.43,7.43,0,0,0,1.14,4.26,3.77,3.77,0,0,0,3.35,1.68,3.73,3.73,0,0,0,3.3-1.68,7.42,7.42,0,0,0,1.13-4.26V729a7.43,7.43,0,0,0-1.14-4.24,4.09,4.09,0,0,0-6.64,0,7.43,7.43,0,0,0-1.14,4.24Z"/><path class="cls-2" d="M217.41,721l.21,2.14a5.66,5.66,0,0,1,2.08-1.81,6.25,6.25,0,0,1,2.92-.64,5.73,5.73,0,0,1,3,.77,4.6,4.6,0,0,1,1.89,2.31,5.92,5.92,0,0,1,2.07-2.25,5.56,5.56,0,0,1,3.06-.83,5.41,5.41,0,0,1,4.22,1.71,7.44,7.44,0,0,1,1.55,5.13v9.72h-3V727.5a4.94,4.94,0,0,0-.93-3.4,3.58,3.58,0,0,0-2.76-1,3.29,3.29,0,0,0-2.59,1.09,4.65,4.65,0,0,0-1.12,2.75v10.31h-3V727.5a4.93,4.93,0,0,0-.95-3.34,3.5,3.5,0,0,0-2.75-1.06,4.31,4.31,0,0,0-2.32.57,3.6,3.6,0,0,0-1.38,1.58v12h-3V721Z"/><path class="cls-2" d="M256.7,729.74a8.88,8.88,0,0,1-1.71,5.68,5.69,5.69,0,0,1-4.73,2.14,6.79,6.79,0,0,1-2.71-.51,5.19,5.19,0,0,1-2-1.53v8h-2.95V721h2.26l.47,2.16a5.49,5.49,0,0,1,2-1.84,6.14,6.14,0,0,1,2.85-.63A5.49,5.49,0,0,1,255,723.1a10.67,10.67,0,0,1,1.72,6.32Zm-2.94-.32a8.35,8.35,0,0,0-1.13-4.54,3.65,3.65,0,0,0-3.29-1.78,4.13,4.13,0,0,0-2.27.59,4.47,4.47,0,0,0-1.5,1.61v7.76a4.34,4.34,0,0,0,1.51,1.61,4.3,4.3,0,0,0,2.29.57,3.8,3.8,0,0,0,3.27-1.53,6.57,6.57,0,0,0,1.12-4Z"/><path class="cls-2" d="M270,737.25c-.1-.45-.17-.86-.23-1.23a10.83,10.83,0,0,1-.12-1.13,6.71,6.71,0,0,1-2.05,1.91,5.31,5.31,0,0,1-2.81.76,5.44,5.44,0,0,1-3.92-1.3,4.74,4.74,0,0,1-1.36-3.57,4.21,4.21,0,0,1,1.89-3.65,8.81,8.81,0,0,1,5.14-1.32h3.11v-1.61a3,3,0,0,0-.83-2.26,3.4,3.4,0,0,0-2.48-.82,3.48,3.48,0,0,0-2.3.71,2.16,2.16,0,0,0-.86,1.73l-2.81,0v-.09a3.87,3.87,0,0,1,1.61-3.25,6.77,6.77,0,0,1,4.54-1.47,6.62,6.62,0,0,1,4.45,1.41,5,5,0,0,1,1.65,4V734a15.45,15.45,0,0,0,.09,1.7,8.74,8.74,0,0,0,.34,1.58Zm-4.77-2.15a4.94,4.94,0,0,0,2.84-.82,3.85,3.85,0,0,0,1.58-1.89v-2.67h-3.2a4.37,4.37,0,0,0-2.91.9,2.69,2.69,0,0,0-1.07,2.13,2.2,2.2,0,0,0,.69,1.71A3,3,0,0,0,265.21,735.1Z"/><path class="cls-2" d="M279.65,721l.2,2.42a5.85,5.85,0,0,1,2.07-2,5.69,5.69,0,0,1,2.87-.72,5.44,5.44,0,0,1,4.14,1.54A6.67,6.67,0,0,1,290.4,727v10.26h-2.95v-10.2a4.34,4.34,0,0,0-.88-3,3.56,3.56,0,0,0-2.67-.9,4.74,4.74,0,0,0-2.4.57,4,4,0,0,0-1.55,1.57v12h-3V721Z"/><path class="cls-2" d="M299.63,731.24l.55,2.09h.09L304.38,721h3.28l-7,18.75a8.54,8.54,0,0,1-1.8,2.85,4.14,4.14,0,0,1-3.15,1.21,7,7,0,0,1-.93-.07c-.36-.06-.64-.11-.84-.16l.3-2.33.51,0,.82.05a1.85,1.85,0,0,0,1.57-.81,9.83,9.83,0,0,0,1.07-1.91l.73-1.69L292.79,721h3.28Z"/><path class="cls-2" d="M321.15,716.83H318.2v-3h2.95Zm0,20.42H318.2V721h2.95Z"/><path class="cls-2" d="M335.49,732.88a2,2,0,0,0-.76-1.6,7.74,7.74,0,0,0-2.89-1.07,12.23,12.23,0,0,1-4.51-1.73,3.48,3.48,0,0,1-1.57-3,4.27,4.27,0,0,1,1.72-3.4,7.7,7.7,0,0,1,9,.09,4.23,4.23,0,0,1,1.67,3.5l0,.09h-2.81a2.56,2.56,0,0,0-.95-1.89,4.14,4.14,0,0,0-4.85-.15,2.14,2.14,0,0,0-.81,1.67,1.74,1.74,0,0,0,.7,1.48,7.59,7.59,0,0,0,2.85,1,12,12,0,0,1,4.62,1.78,3.61,3.61,0,0,1,1.57,3,4.26,4.26,0,0,1-1.79,3.53,7.43,7.43,0,0,1-4.65,1.36,7.34,7.34,0,0,1-5-1.57,4.5,4.5,0,0,1-1.73-3.68l0-.09h2.81a2.68,2.68,0,0,0,1.21,2.29,4.83,4.83,0,0,0,2.65.73,4.33,4.33,0,0,0,2.56-.66A2,2,0,0,0,335.49,732.88Z"/><path class="cls-2" d="M353,737.25H350V713.81H353Z"/><path class="cls-2" d="M356.76,729a8.75,8.75,0,0,1,2-5.94,7.45,7.45,0,0,1,10.83,0,8.81,8.81,0,0,1,2,6v.33a8.81,8.81,0,0,1-2,5.94,6.72,6.72,0,0,1-5.4,2.32,6.79,6.79,0,0,1-5.44-2.32,8.72,8.72,0,0,1-2-5.94Zm2.95.33a7.5,7.5,0,0,0,1.13,4.26,3.8,3.8,0,0,0,3.36,1.68,3.74,3.74,0,0,0,3.3-1.68,7.5,7.5,0,0,0,1.13-4.26V729a7.43,7.43,0,0,0-1.14-4.24,4.1,4.1,0,0,0-6.65,0,7.5,7.5,0,0,0-1.13,4.24Z"/><path class="cls-2" d="M381.68,735.24a4,4,0,0,0,2.54-.91,2.77,2.77,0,0,0,1.12-2.22H388l0,.1a4.52,4.52,0,0,1-1.87,3.72,6.75,6.75,0,0,1-4.47,1.63,6.55,6.55,0,0,1-5.32-2.34,8.73,8.73,0,0,1-1.95-5.78v-.63a8.69,8.69,0,0,1,2-5.76,7.13,7.13,0,0,1,9.91-.67A5.22,5.22,0,0,1,388,726.5l0,.1h-2.67a3.42,3.42,0,0,0-1.07-2.52,3.81,3.81,0,0,0-5.82.68,7.47,7.47,0,0,0-1.08,4v.63a7.54,7.54,0,0,0,1.08,4.09A3.58,3.58,0,0,0,381.68,735.24Z"/><path class="cls-2" d="M396.65,729.75h-1.88v7.5h-2.95V713.81h2.95v13.58h1.85l4.73-6.39h3.53l-5.75,7.47,6.28,8.78h-3.48Z"/><path class="cls-2" d="M414.82,737.56a7.46,7.46,0,0,1-5.78-2.24,8.27,8.27,0,0,1-2.08-5.88v-.66a8.21,8.21,0,0,1,2.12-5.8,6.78,6.78,0,0,1,5.19-2.29,6,6,0,0,1,4.77,1.87,7.78,7.78,0,0,1,1.62,5.25v1.65H410l0,.07a6.26,6.26,0,0,0,1.13,4.11,4.31,4.31,0,0,0,3.7,1.6,8.23,8.23,0,0,0,2.47-.34,10.15,10.15,0,0,0,2-.9l.73,2.1a7.81,7.81,0,0,1-2,1A9.59,9.59,0,0,1,414.82,737.56ZM414.27,723a3.68,3.68,0,0,0-2.79,1.17,5.28,5.28,0,0,0-1.35,3l0,.1h7.55V727a4.67,4.67,0,0,0-.8-2.88A3.13,3.13,0,0,0,414.27,723Z"/><path class="cls-2" d="M423.37,729.42a10.67,10.67,0,0,1,1.7-6.32,5.52,5.52,0,0,1,4.78-2.41,6,6,0,0,1,2.61.54,5.41,5.41,0,0,1,1.94,1.57v-9h3v23.44h-2.26l-.47-2.11a5.37,5.37,0,0,1-2,1.82,6.16,6.16,0,0,1-2.79.6,5.72,5.72,0,0,1-4.74-2.14,8.88,8.88,0,0,1-1.71-5.68Zm2.95.32a6.79,6.79,0,0,0,1,4,3.64,3.64,0,0,0,3.21,1.48,4.12,4.12,0,0,0,2.31-.61,4.77,4.77,0,0,0,1.52-1.73v-7.48a4.69,4.69,0,0,0-1.53-1.65,4.13,4.13,0,0,0-2.27-.6,3.47,3.47,0,0,0-3.23,1.76,8.84,8.84,0,0,0-1.05,4.56Z"/><path class="cls-2" d="M452.68,716.83h-2.95v-3h2.95Zm0,20.42h-2.95V721h2.95Z"/><path class="cls-2" d="M459.87,721l.2,2.42a5.85,5.85,0,0,1,2.07-2,5.66,5.66,0,0,1,2.87-.72,5.44,5.44,0,0,1,4.14,1.54,6.67,6.67,0,0,1,1.47,4.76v10.26h-3v-10.2a4.34,4.34,0,0,0-.87-3,3.58,3.58,0,0,0-2.67-.9,4.74,4.74,0,0,0-2.4.57,4.13,4.13,0,0,0-1.56,1.57v12h-3V721Z"/><path class="cls-2" d="M192.17,753.08V757h3.64v2.19h-3.64V769a2.56,2.56,0,0,0,.42,1.65,1.42,1.42,0,0,0,1.13.49,5.5,5.5,0,0,0,.94-.08,3.51,3.51,0,0,0,.78-.21l.65,2a4,4,0,0,1-1.38.51,8.38,8.38,0,0,1-1.76.19,3.31,3.31,0,0,1-2.72-1.24,6.07,6.07,0,0,1-1-3.88v-9.25H186.7V757h2.52v-3.92Z"/><path class="cls-2" d="M197.92,765a8.8,8.8,0,0,1,2-5.94,7.46,7.46,0,0,1,10.84,0,8.8,8.8,0,0,1,2,6v.33a8.81,8.81,0,0,1-2,5.94,7.5,7.5,0,0,1-10.85,0,8.77,8.77,0,0,1-2-5.94Zm3,.33a7.42,7.42,0,0,0,1.13,4.26,3.77,3.77,0,0,0,3.35,1.68,3.72,3.72,0,0,0,3.3-1.68,7.43,7.43,0,0,0,1.14-4.26V765a7.43,7.43,0,0,0-1.14-4.24,4.1,4.1,0,0,0-6.65,0,7.42,7.42,0,0,0-1.13,4.24Z"/><path class="cls-2" d="M223.33,765a8.75,8.75,0,0,1,2-5.94,7.45,7.45,0,0,1,10.83,0,8.81,8.81,0,0,1,2,6v.33a8.81,8.81,0,0,1-2,5.94,6.72,6.72,0,0,1-5.4,2.32,6.79,6.79,0,0,1-5.44-2.32,8.72,8.72,0,0,1-2-5.94Zm2.95.33a7.5,7.5,0,0,0,1.13,4.26,3.8,3.8,0,0,0,3.36,1.68,3.74,3.74,0,0,0,3.3-1.68,7.42,7.42,0,0,0,1.13-4.26V765a7.43,7.43,0,0,0-1.14-4.24,4.1,4.1,0,0,0-6.65,0,7.5,7.5,0,0,0-1.13,4.24Z"/><path class="cls-2" d="M244.38,757l.2,2.42a5.85,5.85,0,0,1,2.07-2,5.66,5.66,0,0,1,2.87-.72,5.44,5.44,0,0,1,4.14,1.54,6.67,6.67,0,0,1,1.46,4.76v10.26h-3v-10.2a4.34,4.34,0,0,0-.87-3,3.6,3.6,0,0,0-2.68-.9,4.72,4.72,0,0,0-2.39.57,4.06,4.06,0,0,0-1.56,1.57v12h-2.95V757Z"/><path class="cls-2" d="M266.44,773.56a7.46,7.46,0,0,1-5.78-2.24,8.27,8.27,0,0,1-2.08-5.88v-.66a8.16,8.16,0,0,1,2.12-5.8,6.78,6.78,0,0,1,5.19-2.29,6,6,0,0,1,4.77,1.87,7.78,7.78,0,0,1,1.62,5.25v1.65H261.64l0,.07a6.31,6.31,0,0,0,1.12,4.11,4.34,4.34,0,0,0,3.71,1.6,8.23,8.23,0,0,0,2.47-.34,10.4,10.4,0,0,0,2-.9l.73,2.1a7.81,7.81,0,0,1-2,1A9.59,9.59,0,0,1,266.44,773.56ZM265.89,759a3.68,3.68,0,0,0-2.79,1.17,5.28,5.28,0,0,0-1.35,3l0,.1h7.55V763a4.61,4.61,0,0,0-.81-2.88A3.09,3.09,0,0,0,265.89,759Z"/><path class="cls-2" d="M290,771.24a3.94,3.94,0,0,0,2.54-.91,2.77,2.77,0,0,0,1.12-2.22h2.65l0,.1a4.56,4.56,0,0,1-1.88,3.72,6.75,6.75,0,0,1-4.47,1.63,6.55,6.55,0,0,1-5.32-2.34,8.72,8.72,0,0,1-1.94-5.78v-.63a8.73,8.73,0,0,1,2-5.76,6.53,6.53,0,0,1,5.31-2.36,6.46,6.46,0,0,1,4.6,1.69,5.19,5.19,0,0,1,1.76,4.12l0,.1h-2.67a3.42,3.42,0,0,0-1.07-2.52A3.53,3.53,0,0,0,290,759a3.58,3.58,0,0,0-3.23,1.73,7.47,7.47,0,0,0-1.08,4v.63a7.54,7.54,0,0,0,1.08,4.09A3.58,3.58,0,0,0,290,771.24Z"/><path class="cls-2" d="M303.38,773.25h-3V749.81h3Z"/><path class="cls-2" d="M307.14,765a8.8,8.8,0,0,1,2-5.94A7.46,7.46,0,0,1,320,759a8.86,8.86,0,0,1,2,6v.33a8.76,8.76,0,0,1-2,5.94,6.72,6.72,0,0,1-5.4,2.32,6.8,6.8,0,0,1-5.44-2.32,8.77,8.77,0,0,1-2-5.94Zm2.95.33a7.43,7.43,0,0,0,1.14,4.26,3.77,3.77,0,0,0,3.35,1.68,3.72,3.72,0,0,0,3.3-1.68A7.43,7.43,0,0,0,319,765.3V765a7.43,7.43,0,0,0-1.14-4.24,3.79,3.79,0,0,0-3.33-1.7,3.74,3.74,0,0,0-3.32,1.7,7.43,7.43,0,0,0-1.14,4.24Z"/><path class="cls-2" d="M336,770.81a5.47,5.47,0,0,1-2,2,5.6,5.6,0,0,1-2.86.71,5.33,5.33,0,0,1-4.22-1.7q-1.51-1.7-1.52-5.28V757h3v9.61a5.92,5.92,0,0,0,.79,3.58,3,3,0,0,0,2.47,1,5.13,5.13,0,0,0,2.69-.64,4,4,0,0,0,1.59-1.84V757h3v16.25h-2.65Z"/><path class="cls-2" d="M342.42,765.42a10.74,10.74,0,0,1,1.7-6.32,5.52,5.52,0,0,1,4.79-2.41,6,6,0,0,1,2.61.54,5.38,5.38,0,0,1,1.93,1.57v-9h3v23.44h-2.27l-.47-2.11a5.37,5.37,0,0,1-2,1.82,6.09,6.09,0,0,1-2.78.6,5.73,5.73,0,0,1-4.75-2.14,8.88,8.88,0,0,1-1.71-5.68Zm3,.32a6.79,6.79,0,0,0,1,4,3.66,3.66,0,0,0,3.21,1.48,4.1,4.1,0,0,0,2.31-.61,4.59,4.59,0,0,0,1.52-1.73v-7.48a4.51,4.51,0,0,0-1.53-1.65,4.1,4.1,0,0,0-2.26-.6,3.5,3.5,0,0,0-3.24,1.76,8.85,8.85,0,0,0-1,4.56Z"/><path class="cls-2" d="M374,768.46l.28,1.23h.1l.31-1.23L378.55,757h3l-6.12,16.25H373.2L367,757h3Z"/><path class="cls-2" d="M390.86,773.56a7.46,7.46,0,0,1-5.78-2.24,8.27,8.27,0,0,1-2.08-5.88v-.66a8.21,8.21,0,0,1,2.12-5.8,6.78,6.78,0,0,1,5.19-2.29,6,6,0,0,1,4.77,1.87,7.78,7.78,0,0,1,1.62,5.25v1.65H386.06l0,.07a6.26,6.26,0,0,0,1.13,4.11,4.31,4.31,0,0,0,3.7,1.6,8.23,8.23,0,0,0,2.47-.34,10.15,10.15,0,0,0,2-.9l.73,2.1a7.81,7.81,0,0,1-2,1A9.59,9.59,0,0,1,390.86,773.56ZM390.31,759a3.68,3.68,0,0,0-2.79,1.17,5.28,5.28,0,0,0-1.35,3l0,.1h7.55V763a4.67,4.67,0,0,0-.8-2.88A3.13,3.13,0,0,0,390.31,759Z"/><path class="cls-2" d="M402.8,757l.2,2.42a5.85,5.85,0,0,1,2.07-2,5.66,5.66,0,0,1,2.87-.72,5.44,5.44,0,0,1,4.14,1.54,6.67,6.67,0,0,1,1.47,4.76v10.26h-3v-10.2a4.34,4.34,0,0,0-.87-3,3.58,3.58,0,0,0-2.67-.9,4.74,4.74,0,0,0-2.4.57,4.13,4.13,0,0,0-1.56,1.57v12h-2.95V757Z"/><path class="cls-2" d="M417,765.42a10.74,10.74,0,0,1,1.7-6.32,5.52,5.52,0,0,1,4.79-2.41,5.92,5.92,0,0,1,2.6.54,5.33,5.33,0,0,1,1.94,1.57v-9h3v23.44h-2.27l-.47-2.11a5.37,5.37,0,0,1-2,1.82,6.1,6.1,0,0,1-2.79.6,5.72,5.72,0,0,1-4.74-2.14,8.88,8.88,0,0,1-1.71-5.68Zm3,.32a6.79,6.79,0,0,0,1,4,3.66,3.66,0,0,0,3.21,1.48,4.1,4.1,0,0,0,2.31-.61,4.59,4.59,0,0,0,1.52-1.73v-7.48a4.51,4.51,0,0,0-1.53-1.65,4.1,4.1,0,0,0-2.26-.6,3.5,3.5,0,0,0-3.24,1.76,8.84,8.84,0,0,0-1,4.56Z"/><path class="cls-2" d="M434.62,765a8.8,8.8,0,0,1,2-5.94,7.46,7.46,0,0,1,10.84,0,8.8,8.8,0,0,1,2,6v.33a8.81,8.81,0,0,1-2,5.94,6.74,6.74,0,0,1-5.41,2.32,6.81,6.81,0,0,1-5.44-2.32,8.77,8.77,0,0,1-2-5.94Zm3,.33a7.5,7.5,0,0,0,1.13,4.26,4.14,4.14,0,0,0,6.66,0,7.5,7.5,0,0,0,1.13-4.26V765a7.43,7.43,0,0,0-1.14-4.24,4.1,4.1,0,0,0-6.65,0,7.5,7.5,0,0,0-1.13,4.24Z"/><path class="cls-2" d="M460.8,759.63l-1.53-.1a3.41,3.41,0,0,0-3.35,2.16v11.56H453V757h2.65l.21,2.52a5.62,5.62,0,0,1,1.76-2.07,4.1,4.1,0,0,1,2.46-.76,4.51,4.51,0,0,1,.65,0l.5.12Z"/><path class="cls-2" d="M172.27,354.11h-9.21v7.81h10.77v2.33H160.11V342.38h13.58v2.34H163.06v7.06h9.21Z"/><path class="cls-2" d="M179.44,348l.2,2.14a5.74,5.74,0,0,1,2.08-1.81,6.28,6.28,0,0,1,2.92-.64,5.7,5.7,0,0,1,3,.77,4.62,4.62,0,0,1,1.9,2.31,6,6,0,0,1,2.06-2.25,5.61,5.61,0,0,1,3.06-.83,5.41,5.41,0,0,1,4.22,1.71,7.44,7.44,0,0,1,1.55,5.13v9.72h-2.95V354.5a4.94,4.94,0,0,0-.93-3.4,3.58,3.58,0,0,0-2.76-1,3.31,3.31,0,0,0-2.6,1.09,4.71,4.71,0,0,0-1.12,2.75v10.31h-3V354.5a4.88,4.88,0,0,0-1-3.34,3.49,3.49,0,0,0-2.75-1.06,4.34,4.34,0,0,0-2.32.57,3.6,3.6,0,0,0-1.38,1.58v12H176.8V348Z"/><path class="cls-2" d="M214.38,364.25c-.1-.45-.17-.86-.23-1.23a10.83,10.83,0,0,1-.12-1.13A6.71,6.71,0,0,1,212,363.8a5.31,5.31,0,0,1-2.81.76,5.44,5.44,0,0,1-3.92-1.3,4.7,4.7,0,0,1-1.36-3.57,4.23,4.23,0,0,1,1.88-3.65,8.87,8.87,0,0,1,5.15-1.32H214v-1.61a3,3,0,0,0-.83-2.26,3.4,3.4,0,0,0-2.48-.82,3.52,3.52,0,0,0-2.31.71,2.18,2.18,0,0,0-.85,1.73l-2.81,0,0-.09a3.91,3.91,0,0,1,1.62-3.25,6.77,6.77,0,0,1,4.54-1.47,6.62,6.62,0,0,1,4.45,1.41,5,5,0,0,1,1.64,4V361a15.39,15.39,0,0,0,.1,1.7,8.74,8.74,0,0,0,.34,1.58Zm-4.77-2.15a4.94,4.94,0,0,0,2.84-.82,3.85,3.85,0,0,0,1.58-1.89v-2.67h-3.2a4.41,4.41,0,0,0-2.92.9,2.72,2.72,0,0,0-1.07,2.13,2.21,2.21,0,0,0,.7,1.71A3,3,0,0,0,209.61,362.1Z"/><path class="cls-2" d="M224.56,343.83h-2.95v-3h2.95Zm0,20.42h-2.95V348h2.95Z"/><path class="cls-2" d="M232.27,364.25h-3V340.81h3Z"/><path class="cls-2" d="M309.72,216.46a2.86,2.86,0,0,0-1.12-2.32,11.21,11.21,0,0,0-4-1.61,12.43,12.43,0,0,1-5.23-2.43,5.13,5.13,0,0,1-1.85-4,5.4,5.4,0,0,1,2-4.28,8.9,8.9,0,0,1,10.83.26,5.82,5.82,0,0,1,2,4.57l0,.09h-2.81a4,4,0,0,0-1.33-3.07,4.88,4.88,0,0,0-3.42-1.21,4.58,4.58,0,0,0-3.2,1,3.41,3.41,0,0,0-1.07,2.62,2.92,2.92,0,0,0,1.19,2.38,10.86,10.86,0,0,0,4,1.65,12.83,12.83,0,0,1,5.22,2.43,5,5,0,0,1,1.78,3.94,5.44,5.44,0,0,1-2.13,4.41,8.44,8.44,0,0,1-5.5,1.73,9.55,9.55,0,0,1-5.7-1.77,5.38,5.38,0,0,1-2.39-4.74l0-.09h2.81a3.63,3.63,0,0,0,1.61,3.17,6.22,6.22,0,0,0,3.64,1.11,5.13,5.13,0,0,0,3.4-1.07A3.36,3.36,0,0,0,309.72,216.46Z"/><path class="cls-2" d="M319.87,202.08V206h3.64v2.19h-3.64V218a2.56,2.56,0,0,0,.42,1.65,1.42,1.42,0,0,0,1.13.49,5.5,5.5,0,0,0,.94-.08,3.51,3.51,0,0,0,.78-.21l.65,2a4,4,0,0,1-1.38.51,8.38,8.38,0,0,1-1.76.19,3.31,3.31,0,0,1-2.72-1.24,6.13,6.13,0,0,1-1-3.88v-9.25H314.4V206h2.52v-3.92Z"/><path class="cls-2" d="M325.62,214a8.8,8.8,0,0,1,2-5.94,7.46,7.46,0,0,1,10.84,0,8.8,8.8,0,0,1,2,5.95v.33a8.81,8.81,0,0,1-2,5.94,7.5,7.5,0,0,1-10.85,0,8.77,8.77,0,0,1-2-5.94Zm3,.33a7.42,7.42,0,0,0,1.13,4.26,3.77,3.77,0,0,0,3.35,1.68,3.72,3.72,0,0,0,3.3-1.68,7.43,7.43,0,0,0,1.14-4.26V214a7.43,7.43,0,0,0-1.14-4.24,4.1,4.1,0,0,0-6.65,0,7.42,7.42,0,0,0-1.13,4.24Z"/><path class="cls-2" d="M351.79,208.63l-1.53-.1a3.55,3.55,0,0,0-2.06.57,3.58,3.58,0,0,0-1.28,1.59v11.56H344V206h2.65l.21,2.52a5.59,5.59,0,0,1,1.75-2.07,4.15,4.15,0,0,1,2.46-.76,4.4,4.4,0,0,1,.65.05l.51.12Z"/><path class="cls-2" d="M364.5,222.25c-.1-.45-.17-.86-.23-1.23a10.83,10.83,0,0,1-.12-1.13,6.71,6.71,0,0,1-2,1.91,5.29,5.29,0,0,1-2.81.76,5.46,5.46,0,0,1-3.92-1.3,4.74,4.74,0,0,1-1.36-3.57A4.21,4.21,0,0,1,355.9,214a8.81,8.81,0,0,1,5.14-1.32h3.11v-1.61a3,3,0,0,0-.83-2.26,3.39,3.39,0,0,0-2.48-.82,3.48,3.48,0,0,0-2.3.71,2.15,2.15,0,0,0-.85,1.73l-2.82,0v-.09a3.87,3.87,0,0,1,1.61-3.25,6.77,6.77,0,0,1,4.54-1.47,6.62,6.62,0,0,1,4.45,1.41,5,5,0,0,1,1.65,4V219a15.45,15.45,0,0,0,.09,1.7,8.74,8.74,0,0,0,.34,1.58Zm-4.77-2.15a4.94,4.94,0,0,0,2.84-.82,3.8,3.8,0,0,0,1.58-1.89v-2.67H361a4.37,4.37,0,0,0-2.91.9,2.69,2.69,0,0,0-1.07,2.13,2.2,2.2,0,0,0,.69,1.71A3,3,0,0,0,359.73,220.1Z"/><path class="cls-2" d="M370.94,214.42a10.67,10.67,0,0,1,1.7-6.32,5.5,5.5,0,0,1,4.78-2.41,5.85,5.85,0,0,1,2.78.63,5.57,5.57,0,0,1,2,1.84l.38-2.16h2.34v16.35a6.13,6.13,0,0,1-1.85,4.79,7.66,7.66,0,0,1-5.32,1.67,11.07,11.07,0,0,1-2.57-.32,10.67,10.67,0,0,1-2.45-.88l.46-2.31a8.87,8.87,0,0,0,2.1.75,10.67,10.67,0,0,0,2.43.28,4.54,4.54,0,0,0,3.23-1,4,4,0,0,0,1-3v-1.88a5.34,5.34,0,0,1-2,1.56,6,6,0,0,1-2.62.53,5.71,5.71,0,0,1-4.75-2.14,8.87,8.87,0,0,1-1.7-5.68Zm2.93.32a6.79,6.79,0,0,0,1,3.95,3.64,3.64,0,0,0,3.21,1.48,4.16,4.16,0,0,0,2.32-.61,4.55,4.55,0,0,0,1.53-1.73v-7.47a4.62,4.62,0,0,0-1.54-1.65,4.09,4.09,0,0,0-2.28-.61,3.49,3.49,0,0,0-3.23,1.76,8.84,8.84,0,0,0-1.05,4.56Z"/><path class="cls-2" d="M396.23,222.56a7.47,7.47,0,0,1-5.78-2.24,8.27,8.27,0,0,1-2.08-5.88v-.66a8.21,8.21,0,0,1,2.12-5.8,6.79,6.79,0,0,1,5.2-2.29,6,6,0,0,1,4.76,1.87,7.78,7.78,0,0,1,1.63,5.25v1.65H391.44l0,.07a6.31,6.31,0,0,0,1.13,4.11,4.31,4.31,0,0,0,3.7,1.6,8.23,8.23,0,0,0,2.47-.34,9.9,9.9,0,0,0,2-.9l.74,2.1a7.9,7.9,0,0,1-2,1A9.55,9.55,0,0,1,396.23,222.56ZM395.69,208a3.65,3.65,0,0,0-2.79,1.17,5.23,5.23,0,0,0-1.36,3l0,.1h7.54V212a4.67,4.67,0,0,0-.8-2.88A3.12,3.12,0,0,0,395.69,208Z"/><path class="cls-2" d="M448.54,357.25l0,.1a6.46,6.46,0,0,1-2.2,5.14,8.47,8.47,0,0,1-5.95,2.07,7.93,7.93,0,0,1-6.17-2.62,9.53,9.53,0,0,1-2.38-6.67v-3.89a9.56,9.56,0,0,1,2.38-6.67,7.88,7.88,0,0,1,6.17-2.65,8.72,8.72,0,0,1,6,2,6.47,6.47,0,0,1,2.16,5.24l0,.09h-2.83a4.78,4.78,0,0,0-1.38-3.62,5.39,5.39,0,0,0-3.91-1.33,4.85,4.85,0,0,0-4.07,2,7.89,7.89,0,0,0-1.53,5v3.92a7.89,7.89,0,0,0,1.53,5,4.86,4.86,0,0,0,4.07,2,5.43,5.43,0,0,0,3.91-1.33,4.85,4.85,0,0,0,1.38-3.66Z"/><path class="cls-2" d="M455.26,354.77v9.48h-2.95V342.39h7.92a8.6,8.6,0,0,1,5.59,1.59,5.67,5.67,0,0,1,1.93,4.63,4.88,4.88,0,0,1-.9,2.94,6.06,6.06,0,0,1-2.62,2,4.6,4.6,0,0,1,2.64,1.89,6.1,6.1,0,0,1,.81,3.25v2.07a6.39,6.39,0,0,0,.24,1.83,2.76,2.76,0,0,0,.79,1.32v.36h-3a2.47,2.47,0,0,1-.78-1.51,12.36,12.36,0,0,1-.17-2v-2a3.93,3.93,0,0,0-1.07-2.86,3.86,3.86,0,0,0-2.88-1.08Zm0-2.33h4.66a5.84,5.84,0,0,0,3.73-.95,3.59,3.59,0,0,0,1.14-2.91,3.64,3.64,0,0,0-1.11-2.84,5,5,0,0,0-3.45-1h-5Z"/><path class="cls-2" d="M483,360.17h.1l7.18-17.79H494v21.87h-3V347.72H491l-6.83,16.54h-2.05l-7-17.06-.09,0v17H472V342.38h3.89Z"/><path class="cls-2" d="M805.35,515.11h-9.2v7.81h10.76v2.33H793.2V503.38h13.57v2.34H796.15v7.06h9.2Z"/><path class="cls-2" d="M812.52,509l.21,2.14a5.66,5.66,0,0,1,2.08-1.81,6.25,6.25,0,0,1,2.92-.64,5.73,5.73,0,0,1,3,.77,4.6,4.6,0,0,1,1.89,2.31,5.92,5.92,0,0,1,2.07-2.25,5.56,5.56,0,0,1,3.06-.83A5.41,5.41,0,0,1,832,510.4a7.44,7.44,0,0,1,1.55,5.13v9.72h-3V515.5a4.94,4.94,0,0,0-.93-3.4,3.58,3.58,0,0,0-2.76-1,3.29,3.29,0,0,0-2.59,1.09,4.65,4.65,0,0,0-1.12,2.75v10.31h-3V515.5a4.93,4.93,0,0,0-1-3.34,3.5,3.5,0,0,0-2.75-1.06,4.31,4.31,0,0,0-2.32.57,3.6,3.6,0,0,0-1.38,1.58v12h-3V509Z"/><path class="cls-2" d="M847.46,525.25c-.09-.45-.17-.86-.23-1.23s-.09-.75-.11-1.13a6.75,6.75,0,0,1-2.06,1.91,5.28,5.28,0,0,1-2.8.76,5.42,5.42,0,0,1-3.92-1.3,4.7,4.7,0,0,1-1.36-3.57,4.21,4.21,0,0,1,1.88-3.65,8.82,8.82,0,0,1,5.15-1.32h3.11v-1.61a3,3,0,0,0-.84-2.26,3.38,3.38,0,0,0-2.47-.82,3.52,3.52,0,0,0-2.31.71,2.15,2.15,0,0,0-.85,1.73l-2.81,0,0-.09a3.91,3.91,0,0,1,1.62-3.25,6.75,6.75,0,0,1,4.54-1.47,6.61,6.61,0,0,1,4.44,1.41,5,5,0,0,1,1.65,4V522a15.45,15.45,0,0,0,.09,1.7,8.77,8.77,0,0,0,.35,1.58Zm-4.76-2.15a4.91,4.91,0,0,0,2.83-.82,3.82,3.82,0,0,0,1.59-1.89v-2.67h-3.21a4.38,4.38,0,0,0-2.91.9,2.72,2.72,0,0,0-1.07,2.13,2.17,2.17,0,0,0,.7,1.71A3,3,0,0,0,842.7,523.1Z"/><path class="cls-2" d="M857.65,504.83H854.7v-3h2.95Zm0,20.42H854.7V509h2.95Z"/><path class="cls-2" d="M865.35,525.25h-3V501.81h3Z"/><path class="cls-2" d="M877.16,515.22q0-6.39,2.18-10.16a10.42,10.42,0,0,1,5.61-5H885l.58,1.75a9.68,9.68,0,0,0-4.1,4.61,21.79,21.79,0,0,0-1.42,8.75v1.91a22.29,22.29,0,0,0,1.42,8.83,9.55,9.55,0,0,0,4.1,4.65l-.56,1.63H885a10.52,10.52,0,0,1-5.62-5c-1.45-2.52-2.18-5.9-2.18-10.17Z"/><path class="cls-2" d="M901.91,517.74a8.88,8.88,0,0,1-1.71,5.68,5.72,5.72,0,0,1-4.74,2.14,6.1,6.1,0,0,1-2.89-.64,5.22,5.22,0,0,1-2-1.9l-.49,2.23h-2.26V501.81h3V511a5.44,5.44,0,0,1,2-1.71,6,6,0,0,1,2.71-.59,5.51,5.51,0,0,1,4.77,2.41,10.67,10.67,0,0,1,1.71,6.32Zm-2.95-.32a8.84,8.84,0,0,0-1.05-4.56,3.49,3.49,0,0,0-3.21-1.76,4.11,4.11,0,0,0-2.4.67,4.62,4.62,0,0,0-1.54,1.81v7a4.69,4.69,0,0,0,1.54,1.89,4.06,4.06,0,0,0,2.43.68,3.63,3.63,0,0,0,3.19-1.48,6.79,6.79,0,0,0,1-4Z"/><path class="cls-2" d="M912.57,525.56a7.46,7.46,0,0,1-5.78-2.24,8.27,8.27,0,0,1-2.08-5.88v-.66a8.21,8.21,0,0,1,2.12-5.8,6.78,6.78,0,0,1,5.19-2.29,6,6,0,0,1,4.77,1.87,7.78,7.78,0,0,1,1.62,5.25v1.65H907.77l0,.07a6.31,6.31,0,0,0,1.13,4.11,4.31,4.31,0,0,0,3.7,1.6,8.23,8.23,0,0,0,2.47-.34,10.15,10.15,0,0,0,2-.9l.74,2.1a7.9,7.9,0,0,1-2,1A9.55,9.55,0,0,1,912.57,525.56ZM912,511a3.68,3.68,0,0,0-2.79,1.17,5.28,5.28,0,0,0-1.35,3l0,.1h7.55V515a4.67,4.67,0,0,0-.8-2.88A3.13,3.13,0,0,0,912,511Z"/><path class="cls-2" d="M931.66,520.88a2,2,0,0,0-.76-1.6,7.74,7.74,0,0,0-2.89-1.07,12.23,12.23,0,0,1-4.51-1.73,3.48,3.48,0,0,1-1.57-3,4.27,4.27,0,0,1,1.72-3.4,7.7,7.7,0,0,1,9,.09,4.27,4.27,0,0,1,1.68,3.5l0,.09h-2.82a2.56,2.56,0,0,0-1-1.89,4.14,4.14,0,0,0-4.85-.15,2.14,2.14,0,0,0-.81,1.67,1.74,1.74,0,0,0,.7,1.48,7.59,7.59,0,0,0,2.85,1,12,12,0,0,1,4.62,1.78,3.61,3.61,0,0,1,1.57,3,4.27,4.27,0,0,1-1.78,3.53,7.46,7.46,0,0,1-4.66,1.36,7.38,7.38,0,0,1-5-1.57,4.46,4.46,0,0,1-1.72-3.68l0-.09h2.81a2.7,2.7,0,0,0,1.21,2.29,4.85,4.85,0,0,0,2.65.73,4.33,4.33,0,0,0,2.56-.66A2,2,0,0,0,931.66,520.88Z"/><path class="cls-2" d="M941.88,505.08V509h3.64v2.19h-3.64V521a2.49,2.49,0,0,0,.43,1.65,1.39,1.39,0,0,0,1.12.49,5.5,5.5,0,0,0,.94-.08,3.51,3.51,0,0,0,.78-.21l.66,2a4.15,4.15,0,0,1-1.39.51,8.38,8.38,0,0,1-1.76.19,3.31,3.31,0,0,1-2.72-1.24,6.13,6.13,0,0,1-1-3.88v-9.25h-2.52V509h2.52v-3.92Z"/><path class="cls-2" d="M970.21,517.74a8.93,8.93,0,0,1-1.7,5.68,5.72,5.72,0,0,1-4.74,2.14,6.7,6.7,0,0,1-2.7-.51,5.19,5.19,0,0,1-2-1.53v8h-3V509h2.27l.47,2.16a5.49,5.49,0,0,1,2-1.84,6.1,6.1,0,0,1,2.84-.63,5.51,5.51,0,0,1,4.76,2.41,10.67,10.67,0,0,1,1.71,6.32Zm-2.94-.32a8.35,8.35,0,0,0-1.12-4.54,3.65,3.65,0,0,0-3.3-1.78,4.09,4.09,0,0,0-2.26.59,4.31,4.31,0,0,0-1.5,1.61v7.76a4.24,4.24,0,0,0,1.5,1.61,4.32,4.32,0,0,0,2.29.57,3.81,3.81,0,0,0,3.28-1.53,6.63,6.63,0,0,0,1.11-4Z"/><path class="cls-2" d="M981.59,511.63l-1.53-.1a3.41,3.41,0,0,0-3.35,2.16v11.56h-3V509h2.65l.21,2.52a5.62,5.62,0,0,1,1.76-2.07,4.1,4.1,0,0,1,2.46-.76,4.26,4.26,0,0,1,.64.05l.51.12Z"/><path class="cls-2" d="M987.77,504.83h-2.95v-3h2.95Zm0,20.42h-2.95V509h2.95Z"/><path class="cls-2" d="M998.84,523.24a4,4,0,0,0,2.54-.91,2.76,2.76,0,0,0,1.11-2.22h2.66l0,.1a4.55,4.55,0,0,1-1.87,3.72,6.79,6.79,0,0,1-4.47,1.63,6.54,6.54,0,0,1-5.32-2.34,8.73,8.73,0,0,1-1.95-5.78v-.63a8.73,8.73,0,0,1,1.95-5.76,6.57,6.57,0,0,1,5.32-2.36,6.5,6.5,0,0,1,4.6,1.69,5.22,5.22,0,0,1,1.76,4.12l0,.1h-2.67a3.41,3.41,0,0,0-1.06-2.52,3.81,3.81,0,0,0-5.82.68,7.48,7.48,0,0,0-1.09,4v.63a7.54,7.54,0,0,0,1.09,4.09A3.57,3.57,0,0,0,998.84,523.24Z"/><path class="cls-2" d="M1016.1,525.56a7.47,7.47,0,0,1-5.78-2.24,8.31,8.31,0,0,1-2.08-5.88v-.66a8.21,8.21,0,0,1,2.12-5.8,6.79,6.79,0,0,1,5.2-2.29,6,6,0,0,1,4.76,1.87,7.78,7.78,0,0,1,1.63,5.25v1.65h-10.64l0,.07a6.31,6.31,0,0,0,1.13,4.11,4.32,4.32,0,0,0,3.7,1.6,8.23,8.23,0,0,0,2.47-.34,9.9,9.9,0,0,0,2-.9l.74,2.1a7.9,7.9,0,0,1-2,1A9.55,9.55,0,0,1,1016.1,525.56Zm-.54-14.53a3.65,3.65,0,0,0-2.79,1.17,5.23,5.23,0,0,0-1.36,3l0,.1H1019V515a4.67,4.67,0,0,0-.8-2.88A3.12,3.12,0,0,0,1015.56,511Z"/><path class="cls-2" d="M1031.71,517.06c0,4.27-.73,7.65-2.19,10.17a10.59,10.59,0,0,1-5.62,5h-.09l-.57-1.63a9.65,9.65,0,0,0,4.1-4.65,22.09,22.09,0,0,0,1.43-8.83v-1.91a22.21,22.21,0,0,0-1.43-8.84,9.63,9.63,0,0,0-4.1-4.66l.57-1.61h.09a10.51,10.51,0,0,1,5.62,5q2.19,3.76,2.19,10.16Z"/><path class="cls-2" d="M1003.61,268.25l0,.1a6.46,6.46,0,0,1-2.2,5.14,8.47,8.47,0,0,1-6,2.07,7.93,7.93,0,0,1-6.17-2.62,9.53,9.53,0,0,1-2.38-6.67v-3.89a9.56,9.56,0,0,1,2.38-6.67,7.88,7.88,0,0,1,6.17-2.65,8.72,8.72,0,0,1,6,2,6.47,6.47,0,0,1,2.16,5.24l0,.09h-2.83a4.78,4.78,0,0,0-1.38-3.62,5.39,5.39,0,0,0-3.91-1.33,4.85,4.85,0,0,0-4.07,2,7.89,7.89,0,0,0-1.53,5v3.92a7.89,7.89,0,0,0,1.53,5,4.86,4.86,0,0,0,4.07,2,5.43,5.43,0,0,0,3.91-1.33,4.85,4.85,0,0,0,1.38-3.66Z"/><path class="cls-2" d="M1010.33,265.77v9.48h-3V253.39h7.92a8.6,8.6,0,0,1,5.59,1.59,5.67,5.67,0,0,1,1.93,4.63,4.88,4.88,0,0,1-.9,2.94,6.06,6.06,0,0,1-2.62,2,4.6,4.6,0,0,1,2.64,1.89,6.1,6.1,0,0,1,.81,3.25v2.07a6.39,6.39,0,0,0,.24,1.83,2.76,2.76,0,0,0,.79,1.32v.36h-3a2.47,2.47,0,0,1-.78-1.51,12.36,12.36,0,0,1-.17-2v-2a3.93,3.93,0,0,0-1.07-2.86,3.86,3.86,0,0,0-2.88-1.08Zm0-2.33H1015a5.84,5.84,0,0,0,3.73-.95,3.59,3.59,0,0,0,1.14-2.91,3.64,3.64,0,0,0-1.11-2.84,5,5,0,0,0-3.45-1h-5Z"/><path class="cls-2" d="M1038.11,271.17h.1l7.18-17.79h3.68v21.87h-3V258.72H1046l-6.83,16.54h-2l-7-17.06-.09,0v17h-3V253.38H1031Z"/><path class="cls-2" d="M1060.94,265.22q0-6.39,2.17-10.16a10.49,10.49,0,0,1,5.61-5h.1l.57,1.75a9.66,9.66,0,0,0-4.09,4.61,21.62,21.62,0,0,0-1.42,8.75v1.91a22.11,22.11,0,0,0,1.42,8.83,9.54,9.54,0,0,0,4.09,4.65l-.56,1.63h-.09a10.58,10.58,0,0,1-5.63-5c-1.45-2.52-2.17-5.9-2.17-10.17Z"/><path class="cls-2" d="M1085.69,267.74a8.88,8.88,0,0,1-1.71,5.68,5.72,5.72,0,0,1-4.74,2.14,6.07,6.07,0,0,1-2.89-.64,5.17,5.17,0,0,1-2-1.9l-.48,2.23h-2.27V251.81h3V261a5.55,5.55,0,0,1,2-1.71,6,6,0,0,1,2.71-.59,5.51,5.51,0,0,1,4.77,2.41,10.67,10.67,0,0,1,1.71,6.32Zm-3-.32a8.75,8.75,0,0,0-1.06-4.56,3.47,3.47,0,0,0-3.21-1.76,4.11,4.11,0,0,0-2.4.67,4.71,4.71,0,0,0-1.54,1.81v7a4.78,4.78,0,0,0,1.54,1.89,4.06,4.06,0,0,0,2.43.68,3.63,3.63,0,0,0,3.2-1.48,6.79,6.79,0,0,0,1-3.95Z"/><path class="cls-2" d="M1096.35,275.56a7.46,7.46,0,0,1-5.78-2.24,8.27,8.27,0,0,1-2.08-5.88v-.66a8.16,8.16,0,0,1,2.12-5.8,6.78,6.78,0,0,1,5.19-2.29,6,6,0,0,1,4.77,1.87,7.78,7.78,0,0,1,1.62,5.25v1.65h-10.64l0,.07a6.31,6.31,0,0,0,1.12,4.11,4.34,4.34,0,0,0,3.71,1.6,8.23,8.23,0,0,0,2.47-.34,10.4,10.4,0,0,0,2-.9l.73,2.1a7.81,7.81,0,0,1-2,1A9.59,9.59,0,0,1,1096.35,275.56ZM1095.8,261a3.68,3.68,0,0,0-2.79,1.17,5.28,5.28,0,0,0-1.35,3l0,.1h7.55V265a4.61,4.61,0,0,0-.81-2.88A3.09,3.09,0,0,0,1095.8,261Z"/><path class="cls-2" d="M1115.44,270.88a2,2,0,0,0-.76-1.6,7.81,7.81,0,0,0-2.9-1.07,12.17,12.17,0,0,1-4.5-1.73,3.48,3.48,0,0,1-1.57-3,4.27,4.27,0,0,1,1.72-3.4,7.7,7.7,0,0,1,9,.09,4.26,4.26,0,0,1,1.67,3.5l0,.09h-2.81a2.56,2.56,0,0,0-1-1.89,3.53,3.53,0,0,0-2.44-.86,3.6,3.6,0,0,0-2.42.71,2.16,2.16,0,0,0-.8,1.67,1.74,1.74,0,0,0,.7,1.48,7.59,7.59,0,0,0,2.85,1,11.87,11.87,0,0,1,4.61,1.78,3.58,3.58,0,0,1,1.57,3,4.25,4.25,0,0,1-1.78,3.53,7.43,7.43,0,0,1-4.65,1.36,7.34,7.34,0,0,1-5-1.57,4.5,4.5,0,0,1-1.73-3.68l0-.09h2.82a2.68,2.68,0,0,0,1.21,2.29,4.83,4.83,0,0,0,2.65.73,4.35,4.35,0,0,0,2.56-.66A2,2,0,0,0,1115.44,270.88Z"/><path class="cls-2" d="M1125.66,255.08V259h3.64v2.19h-3.64V271a2.56,2.56,0,0,0,.42,1.65,1.41,1.41,0,0,0,1.13.49,5.31,5.31,0,0,0,.93-.08,3.47,3.47,0,0,0,.79-.21l.65,2a4,4,0,0,1-1.38.51,8.45,8.45,0,0,1-1.76.19,3.34,3.34,0,0,1-2.73-1.24,6.13,6.13,0,0,1-1-3.88v-9.25h-2.52V259h2.52v-3.92Z"/><path class="cls-2" d="M1154,267.74a8.88,8.88,0,0,1-1.71,5.68,5.69,5.69,0,0,1-4.73,2.14,6.7,6.7,0,0,1-2.7-.51,5.23,5.23,0,0,1-2-1.53v8h-2.95V259h2.27l.46,2.16a5.52,5.52,0,0,1,2-1.84,6.1,6.1,0,0,1,2.84-.63,5.51,5.51,0,0,1,4.76,2.41,10.67,10.67,0,0,1,1.71,6.32Zm-2.94-.32a8.35,8.35,0,0,0-1.12-4.54,3.65,3.65,0,0,0-3.3-1.78,4.13,4.13,0,0,0-2.27.59,4.47,4.47,0,0,0-1.5,1.61v7.76a4.34,4.34,0,0,0,1.51,1.61,4.3,4.3,0,0,0,2.29.57,3.78,3.78,0,0,0,3.27-1.53,6.57,6.57,0,0,0,1.12-4Z"/><path class="cls-2" d="M1165.36,261.63l-1.53-.1a3.55,3.55,0,0,0-2.06.57,3.58,3.58,0,0,0-1.28,1.59v11.56h-3V259h2.66l.2,2.52a5.71,5.71,0,0,1,1.76-2.07,4.15,4.15,0,0,1,2.46-.76,4.4,4.4,0,0,1,.65.05l.51.12Z"/><path class="cls-2" d="M1171.55,254.83h-3v-3h3Zm0,20.42h-3V259h3Z"/><path class="cls-2" d="M1182.61,273.24a3.94,3.94,0,0,0,2.54-.91,2.74,2.74,0,0,0,1.12-2.22h2.66l0,.1a4.56,4.56,0,0,1-1.88,3.72,6.75,6.75,0,0,1-4.47,1.63,6.55,6.55,0,0,1-5.32-2.34,8.78,8.78,0,0,1-1.94-5.78v-.63a8.73,8.73,0,0,1,2-5.76,6.53,6.53,0,0,1,5.31-2.36,6.46,6.46,0,0,1,4.6,1.69,5.19,5.19,0,0,1,1.76,4.12l0,.1h-2.67a3.45,3.45,0,0,0-1.06-2.52,3.81,3.81,0,0,0-5.82.68,7.39,7.39,0,0,0-1.09,4.05v.63a7.46,7.46,0,0,0,1.09,4.09A3.57,3.57,0,0,0,1182.61,273.24Z"/><path class="cls-2" d="M1199.88,275.56a7.46,7.46,0,0,1-5.78-2.24,8.27,8.27,0,0,1-2.08-5.88v-.66a8.16,8.16,0,0,1,2.12-5.8,6.78,6.78,0,0,1,5.19-2.29,6,6,0,0,1,4.77,1.87,7.78,7.78,0,0,1,1.62,5.25v1.65h-10.64l0,.07a6.26,6.26,0,0,0,1.13,4.11,4.31,4.31,0,0,0,3.7,1.6,8.23,8.23,0,0,0,2.47-.34,10.15,10.15,0,0,0,2-.9l.73,2.1a7.81,7.81,0,0,1-2,1A9.59,9.59,0,0,1,1199.88,275.56Zm-.55-14.53a3.68,3.68,0,0,0-2.79,1.17,5.28,5.28,0,0,0-1.35,3l0,.1h7.55V265a4.61,4.61,0,0,0-.81-2.88A3.09,3.09,0,0,0,1199.33,261Z"/><path class="cls-2" d="M1215.49,267.06c0,4.27-.73,7.65-2.19,10.17a10.63,10.63,0,0,1-5.62,5h-.1l-.56-1.63a9.63,9.63,0,0,0,4.09-4.65,21.89,21.89,0,0,0,1.44-8.83v-1.91a22,22,0,0,0-1.44-8.84,9.61,9.61,0,0,0-4.09-4.66l.56-1.61h.1a10.55,10.55,0,0,1,5.62,5q2.19,3.76,2.19,10.16Z"/><path class="cls-2" d="M1179.8,519.46a2.85,2.85,0,0,0-1.11-2.32,11.19,11.19,0,0,0-4-1.61,12.32,12.32,0,0,1-5.22-2.43,5.1,5.1,0,0,1-1.85-4.05,5.4,5.4,0,0,1,2-4.28,7.73,7.73,0,0,1,5.23-1.71,7.82,7.82,0,0,1,5.6,2,5.86,5.86,0,0,1,2,4.57l0,.09h-2.82a4,4,0,0,0-1.32-3.07,4.89,4.89,0,0,0-3.43-1.21,4.55,4.55,0,0,0-3.19,1,3.41,3.41,0,0,0-1.07,2.62,2.9,2.9,0,0,0,1.19,2.38,10.86,10.86,0,0,0,4,1.65,12.71,12.71,0,0,1,5.21,2.43,5,5,0,0,1,1.79,3.94,5.45,5.45,0,0,1-2.14,4.41,8.39,8.39,0,0,1-5.49,1.73,9.51,9.51,0,0,1-5.7-1.77,5.33,5.33,0,0,1-2.39-4.74l0-.09h2.81a3.62,3.62,0,0,0,1.6,3.17,6.27,6.27,0,0,0,3.65,1.11,5.13,5.13,0,0,0,3.4-1.07A3.35,3.35,0,0,0,1179.8,519.46Z"/><path class="cls-2" d="M1190,505.08V509h3.64v2.19H1190V521a2.56,2.56,0,0,0,.42,1.65,1.41,1.41,0,0,0,1.13.49,5.31,5.31,0,0,0,.93-.08,3.22,3.22,0,0,0,.78-.21l.66,2a4,4,0,0,1-1.38.51,8.45,8.45,0,0,1-1.76.19,3.33,3.33,0,0,1-2.73-1.24,6.13,6.13,0,0,1-1-3.88v-9.25h-2.52V509H1187v-3.92Z"/><path class="cls-2" d="M1195.71,517a8.8,8.8,0,0,1,2-5.94,7.45,7.45,0,0,1,10.83,0,8.81,8.81,0,0,1,2,6v.33a8.76,8.76,0,0,1-2,5.94,6.72,6.72,0,0,1-5.4,2.32,6.79,6.79,0,0,1-5.44-2.32,8.77,8.77,0,0,1-2-5.94Zm3,.33a7.5,7.5,0,0,0,1.13,4.26,3.8,3.8,0,0,0,3.36,1.68,3.73,3.73,0,0,0,3.3-1.68,7.42,7.42,0,0,0,1.13-4.26V517a7.43,7.43,0,0,0-1.14-4.24,4.1,4.1,0,0,0-6.65,0,7.5,7.5,0,0,0-1.13,4.24Z"/><path class="cls-2" d="M1221.88,511.63l-1.53-.1a3.41,3.41,0,0,0-3.34,2.16v11.56h-3V509h2.66l.2,2.52a5.71,5.71,0,0,1,1.76-2.07,4.1,4.1,0,0,1,2.46-.76,4.4,4.4,0,0,1,.65.05l.51.12Z"/><path class="cls-2" d="M1234.58,525.25c-.09-.45-.17-.86-.22-1.23a10.83,10.83,0,0,1-.12-1.13,6.83,6.83,0,0,1-2,1.91,5.31,5.31,0,0,1-2.81.76,5.42,5.42,0,0,1-3.92-1.3,4.7,4.7,0,0,1-1.36-3.57A4.23,4.23,0,0,1,1226,517a8.84,8.84,0,0,1,5.15-1.32h3.11v-1.61a3,3,0,0,0-.84-2.26,3.36,3.36,0,0,0-2.47-.82,3.52,3.52,0,0,0-2.31.71,2.15,2.15,0,0,0-.85,1.73l-2.81,0,0-.09a3.91,3.91,0,0,1,1.62-3.25,6.75,6.75,0,0,1,4.54-1.47,6.59,6.59,0,0,1,4.44,1.41,5,5,0,0,1,1.65,4V522a13.28,13.28,0,0,0,.1,1.7,8,8,0,0,0,.34,1.58Zm-4.76-2.15a4.88,4.88,0,0,0,2.83-.82,3.82,3.82,0,0,0,1.59-1.89v-2.67H1231a4.41,4.41,0,0,0-2.92.9,2.72,2.72,0,0,0-1.07,2.13,2.17,2.17,0,0,0,.7,1.71A3,3,0,0,0,1229.82,523.1Z"/><path class="cls-2" d="M1241,517.42a10.74,10.74,0,0,1,1.7-6.32,5.52,5.52,0,0,1,4.79-2.41,5.88,5.88,0,0,1,2.78.63,5.65,5.65,0,0,1,2,1.84l.37-2.16H1255v16.35a6.1,6.1,0,0,1-1.86,4.79,7.63,7.63,0,0,1-5.32,1.67,11.13,11.13,0,0,1-2.57-.32,10.58,10.58,0,0,1-2.44-.88l.45-2.31a9,9,0,0,0,2.11.75,10.58,10.58,0,0,0,2.42.28,4.57,4.57,0,0,0,3.24-1,4,4,0,0,0,1-3v-1.88a5.23,5.23,0,0,1-2,1.56,6.09,6.09,0,0,1-2.63.53,5.73,5.73,0,0,1-4.75-2.14,8.93,8.93,0,0,1-1.7-5.68Zm2.94.32a6.72,6.72,0,0,0,1,4,3.64,3.64,0,0,0,3.21,1.48,4.12,4.12,0,0,0,2.31-.61,4.39,4.39,0,0,0,1.53-1.73v-7.47a4.54,4.54,0,0,0-1.54-1.65,4.08,4.08,0,0,0-2.27-.61,3.47,3.47,0,0,0-3.23,1.76,8.84,8.84,0,0,0-1,4.56Z"/><path class="cls-2" d="M1266.32,525.56a7.46,7.46,0,0,1-5.78-2.24,8.27,8.27,0,0,1-2.08-5.88v-.66a8.16,8.16,0,0,1,2.12-5.8,6.78,6.78,0,0,1,5.19-2.29,6,6,0,0,1,4.77,1.87,7.78,7.78,0,0,1,1.62,5.25v1.65h-10.64l0,.07a6.31,6.31,0,0,0,1.12,4.11,4.34,4.34,0,0,0,3.71,1.6,8.23,8.23,0,0,0,2.47-.34,10.4,10.4,0,0,0,2-.9l.73,2.1a7.81,7.81,0,0,1-2,1A9.59,9.59,0,0,1,1266.32,525.56Zm-.55-14.53a3.68,3.68,0,0,0-2.79,1.17,5.28,5.28,0,0,0-1.35,3l0,.1h7.55V515a4.61,4.61,0,0,0-.81-2.88A3.09,3.09,0,0,0,1265.77,511Z"/><path class="cls-2" d="M1282.88,515.22q0-6.39,2.17-10.16a10.49,10.49,0,0,1,5.61-5h.1l.57,1.75a9.66,9.66,0,0,0-4.09,4.61,21.62,21.62,0,0,0-1.42,8.75v1.91a22.11,22.11,0,0,0,1.42,8.83,9.54,9.54,0,0,0,4.09,4.65l-.56,1.63h-.09a10.58,10.58,0,0,1-5.63-5c-1.45-2.52-2.17-5.9-2.17-10.17Z"/><path class="cls-2" d="M1307.63,517.74a8.88,8.88,0,0,1-1.71,5.68,5.72,5.72,0,0,1-4.74,2.14,6.07,6.07,0,0,1-2.89-.64,5.17,5.17,0,0,1-2-1.9l-.48,2.23h-2.27V501.81h3V511a5.55,5.55,0,0,1,2-1.71,5.92,5.92,0,0,1,2.71-.59,5.51,5.51,0,0,1,4.77,2.41,10.67,10.67,0,0,1,1.71,6.32Zm-3-.32a8.75,8.75,0,0,0-1.06-4.56,3.47,3.47,0,0,0-3.21-1.76,4.11,4.11,0,0,0-2.4.67,4.71,4.71,0,0,0-1.54,1.81v7a4.78,4.78,0,0,0,1.54,1.89,4.06,4.06,0,0,0,2.43.68,3.63,3.63,0,0,0,3.2-1.48,6.79,6.79,0,0,0,1-4Z"/><path class="cls-2" d="M1318.29,525.56a7.46,7.46,0,0,1-5.78-2.24,8.27,8.27,0,0,1-2.08-5.88v-.66a8.2,8.2,0,0,1,2.11-5.8,6.82,6.82,0,0,1,5.2-2.29,6,6,0,0,1,4.77,1.87,7.78,7.78,0,0,1,1.62,5.25v1.65h-10.64l0,.07a6.31,6.31,0,0,0,1.12,4.11,4.34,4.34,0,0,0,3.71,1.6,8.28,8.28,0,0,0,2.47-.34,10.4,10.4,0,0,0,2-.9l.73,2.1a7.81,7.81,0,0,1-2,1A9.59,9.59,0,0,1,1318.29,525.56Zm-.55-14.53a3.67,3.67,0,0,0-2.79,1.17,5.28,5.28,0,0,0-1.35,3l0,.1h7.55V515a4.61,4.61,0,0,0-.81-2.88A3.09,3.09,0,0,0,1317.74,511Z"/><path class="cls-2" d="M1337.38,520.88a2,2,0,0,0-.77-1.6,7.67,7.67,0,0,0-2.89-1.07,12.17,12.17,0,0,1-4.5-1.73,3.48,3.48,0,0,1-1.57-3,4.29,4.29,0,0,1,1.71-3.4,7.72,7.72,0,0,1,9,.09,4.26,4.26,0,0,1,1.67,3.5l0,.09h-2.81a2.56,2.56,0,0,0-1-1.89,3.53,3.53,0,0,0-2.44-.86,3.59,3.59,0,0,0-2.42.71,2.16,2.16,0,0,0-.8,1.67,1.76,1.76,0,0,0,.69,1.48,7.73,7.73,0,0,0,2.86,1,11.87,11.87,0,0,1,4.61,1.78,3.58,3.58,0,0,1,1.57,3,4.25,4.25,0,0,1-1.78,3.53,7.44,7.44,0,0,1-4.65,1.36,7.34,7.34,0,0,1-5-1.57,4.5,4.5,0,0,1-1.73-3.68l0-.09H1330a2.68,2.68,0,0,0,1.21,2.29,4.83,4.83,0,0,0,2.65.73,4.35,4.35,0,0,0,2.56-.66A2,2,0,0,0,1337.38,520.88Z"/><path class="cls-2" d="M1347.6,505.08V509h3.64v2.19h-3.64V521a2.56,2.56,0,0,0,.42,1.65,1.41,1.41,0,0,0,1.13.49,5.31,5.31,0,0,0,.93-.08,3.22,3.22,0,0,0,.78-.21l.66,2a4,4,0,0,1-1.38.51,8.45,8.45,0,0,1-1.76.19,3.33,3.33,0,0,1-2.73-1.24,6.13,6.13,0,0,1-1-3.88v-9.25h-2.52V509h2.52v-3.92Z"/><path class="cls-2" d="M1375.93,517.74a8.88,8.88,0,0,1-1.71,5.68,5.69,5.69,0,0,1-4.73,2.14,6.7,6.7,0,0,1-2.7-.51,5.23,5.23,0,0,1-2-1.53v8h-3V509h2.26l.47,2.16a5.49,5.49,0,0,1,2-1.84,6.17,6.17,0,0,1,2.85-.63,5.51,5.51,0,0,1,4.76,2.41,10.67,10.67,0,0,1,1.71,6.32Zm-2.94-.32a8.35,8.35,0,0,0-1.13-4.54,3.64,3.64,0,0,0-3.29-1.78,4.13,4.13,0,0,0-2.27.59,4.47,4.47,0,0,0-1.5,1.61v7.76a4.34,4.34,0,0,0,1.51,1.61,4.3,4.3,0,0,0,2.29.57,3.78,3.78,0,0,0,3.27-1.53,6.57,6.57,0,0,0,1.12-4Z"/><path class="cls-2" d="M1387.3,511.63l-1.53-.1a3.55,3.55,0,0,0-2.06.57,3.58,3.58,0,0,0-1.28,1.59v11.56h-3V509h2.66l.2,2.52a5.71,5.71,0,0,1,1.76-2.07,4.1,4.1,0,0,1,2.46-.76,4.4,4.4,0,0,1,.65.05l.51.12Z"/><path class="cls-2" d="M1393.49,504.83h-3v-3h3Zm0,20.42h-3V509h3Z"/><path class="cls-2" d="M1404.55,523.24a3.94,3.94,0,0,0,2.54-.91,2.74,2.74,0,0,0,1.12-2.22h2.65l0,.1a4.56,4.56,0,0,1-1.88,3.72,6.75,6.75,0,0,1-4.47,1.63,6.55,6.55,0,0,1-5.32-2.34,8.78,8.78,0,0,1-1.94-5.78v-.63a8.73,8.73,0,0,1,2-5.76,6.53,6.53,0,0,1,5.31-2.36,6.46,6.46,0,0,1,4.6,1.69,5.19,5.19,0,0,1,1.76,4.12l0,.1h-2.67a3.45,3.45,0,0,0-1.06-2.52,3.81,3.81,0,0,0-5.82.68,7.39,7.39,0,0,0-1.09,4v.63a7.46,7.46,0,0,0,1.09,4.09A3.56,3.56,0,0,0,1404.55,523.24Z"/><path class="cls-2" d="M1421.82,525.56a7.46,7.46,0,0,1-5.78-2.24,8.27,8.27,0,0,1-2.08-5.88v-.66a8.16,8.16,0,0,1,2.12-5.8,6.78,6.78,0,0,1,5.19-2.29,6,6,0,0,1,4.77,1.87,7.78,7.78,0,0,1,1.62,5.25v1.65H1417l0,.07a6.31,6.31,0,0,0,1.12,4.11,4.34,4.34,0,0,0,3.71,1.6,8.23,8.23,0,0,0,2.47-.34,10.4,10.4,0,0,0,2-.9l.73,2.1a7.81,7.81,0,0,1-2,1A9.59,9.59,0,0,1,1421.82,525.56Zm-.55-14.53a3.68,3.68,0,0,0-2.79,1.17,5.28,5.28,0,0,0-1.35,3l0,.1h7.55V515a4.61,4.61,0,0,0-.81-2.88A3.09,3.09,0,0,0,1421.27,511Z"/><path class="cls-2" d="M1437.43,517.06c0,4.27-.73,7.65-2.19,10.17a10.61,10.61,0,0,1-5.63,5h-.09l-.56-1.63a9.63,9.63,0,0,0,4.09-4.65,21.89,21.89,0,0,0,1.44-8.83v-1.91a22,22,0,0,0-1.44-8.84,9.61,9.61,0,0,0-4.09-4.66l.56-1.61h.09a10.53,10.53,0,0,1,5.63,5q2.19,3.76,2.19,10.16Z"/></g><path class="cls-4" d="M513,272.61a10.93,10.93,0,0,0,3.56-8.15,11.11,11.11,0,1,0-22.22,0,11,11,0,0,0,3.55,8.15,20,20,0,0,0-12.29,16,45.18,45.18,0,0,0-9.49-4.15,20.51,20.51,0,0,0,10.08-17.77,20.74,20.74,0,1,0-31.41,17.77,34,34,0,0,0-9.48,4.15,20.06,20.06,0,0,0-12.3-16,10.93,10.93,0,0,0,3.56-8.15,11.11,11.11,0,1,0-22.22,0,11,11,0,0,0,3.55,8.15,20.12,20.12,0,0,0-12.44,18.52,2.22,2.22,0,0,0,4.44,0,15.56,15.56,0,0,1,31.11,0v.45a39.14,39.14,0,0,0-14.81,30.66,2.22,2.22,0,1,0,4.44,0,34.82,34.82,0,0,1,69.63,0,2.23,2.23,0,0,0,4.45,0,38.91,38.91,0,0,0-14.82-30.66v-.45a15.56,15.56,0,0,1,31.11,0,2.23,2.23,0,0,0,4.45,0A20.13,20.13,0,0,0,513,272.61Zm-87.55-1.48a6.67,6.67,0,1,1,6.66-6.67A6.64,6.64,0,0,1,425.42,271.13Zm23.7-4.44A16.3,16.3,0,1,1,465.42,283,16.25,16.25,0,0,1,449.12,266.69Zm56.3,4.44a6.67,6.67,0,1,1,6.66-6.67A6.64,6.64,0,0,1,505.42,271.13Z"/><path class="cls-4" d="M1148.77,138.91a11,11,0,0,0,3.56-8.15,11.12,11.12,0,0,0-22.23,0,11,11,0,0,0,3.56,8.15,20,20,0,0,0-12.3,16,44.37,44.37,0,0,0-9.48-4.15A20.53,20.53,0,0,0,1122,133a20.75,20.75,0,1,0-31.41,17.78,34,34,0,0,0-9.48,4.15,20,20,0,0,0-12.3-16,11,11,0,0,0,3.56-8.15,11.12,11.12,0,0,0-22.23,0,11,11,0,0,0,3.56,8.15,20.12,20.12,0,0,0-12.45,18.51,2.23,2.23,0,1,0,4.45,0,15.56,15.56,0,0,1,31.11,0v.45A39.13,39.13,0,0,0,1062,188.54a2.22,2.22,0,1,0,4.44,0,34.82,34.82,0,1,1,69.63,0,2.22,2.22,0,0,0,4.44,0,38.91,38.91,0,0,0-14.81-30.67v-.45a15.56,15.56,0,0,1,31.11,0,2.22,2.22,0,1,0,4.44,0A20.11,20.11,0,0,0,1148.77,138.91Zm-87.56-1.49a6.67,6.67,0,1,1,6.67-6.66A6.63,6.63,0,0,1,1061.21,137.42Zm23.71-4.44a16.3,16.3,0,1,1,16.29,16.3A16.25,16.25,0,0,1,1084.92,133Zm56.29,4.44a6.67,6.67,0,1,1,6.67-6.66A6.63,6.63,0,0,1,1141.21,137.42Z"/><path class="cls-2" d="M1155.19,683.37V542.45a9.08,9.08,0,0,0-9.09-9.08h-88.63a9.08,9.08,0,0,0-9.09,9.08V683.37Zm-99.41-5.91V542.93a3.66,3.66,0,0,1,3.67-3.66h85.08a3.25,3.25,0,0,1,3.25,3.25V677.46Z"/><rect class="cls-2" x="1070.82" y="556.46" width="15.24" height="15.24"/><rect class="cls-2" x="1094.16" y="556.46" width="15.24" height="15.24"/><rect class="cls-2" x="1117.51" y="556.46" width="15.24" height="15.24"/><rect class="cls-2" x="1070.82" y="578.93" width="15.24" height="15.24"/><rect class="cls-2" x="1094.16" y="578.93" width="15.24" height="15.24"/><rect class="cls-2" x="1117.51" y="578.93" width="15.24" height="15.24"/><rect class="cls-2" x="1070.82" y="601.4" width="15.24" height="15.24"/><rect class="cls-2" x="1094.16" y="601.4" width="15.24" height="15.24"/><rect class="cls-2" x="1117.51" y="601.4" width="15.24" height="15.24"/><rect class="cls-2" x="1070.82" y="623.87" width="15.24" height="15.24"/><rect class="cls-2" x="1094.16" y="623.87" width="15.24" height="15.24"/><rect class="cls-2" x="1094.16" y="653.09" width="15.24" height="28.71"/><rect class="cls-2" x="1117.51" y="623.87" width="15.24" height="15.24"/></g></svg>